<svg width="186" height="167" viewBox="0 0 186 167" fill="none" xmlns="http://www.w3.org/2000/svg">
<g opacity="0.19">
<path d="M149.359 161.753L53.9427 160.715C37.4346 160.765 21.2189 149.674 11.3359 132.505C1.45349 115.337 -2.08897 92.6093 1.18744 71.7758C4.46386 50.9422 14.3329 32.2063 27.6921 19.8459C35.9251 12.2282 45.5497 6.90157 55.6526 5.46212C65.7551 4.02266 76.3297 6.61837 84.9797 13.6247C100.043 25.8259 108.17 49.9193 124.314 59.514C131.834 63.9828 140.29 64.7611 148.278 67.5238C164 72.9623 178.924 88.6005 180.976 109.407C182.481 124.674 178.624 136.045 170.673 148.073C164.097 158.021 158.888 162.879 149.359 161.753Z" fill="#AACAF9"/>
</g>
<path d="M178.862 164.877H3.00453C2.53044 164.877 2.146 164.485 2.146 164.002C2.146 163.519 2.53044 163.127 3.00453 163.127H178.862C179.336 163.127 179.72 163.519 179.72 164.002C179.721 164.485 179.336 164.877 178.862 164.877Z" fill="#88B4FF"/>
<path d="M154.19 126.93C158.359 127.275 162.051 127.186 166.14 127.174C169.284 127.166 172.855 126.854 175.717 125.529C179.002 124.008 181.393 120.914 182.798 117.529C184.204 114.144 184.731 110.456 185.142 106.804C185.79 101.052 186.182 95.2388 185.654 89.4736C184.782 90.4224 184.679 91.8379 184.595 93.1348C184.293 97.8423 183.641 102.526 182.647 107.134C182.027 110.009 181.538 113.023 180.118 115.587C178.896 117.794 177.637 119.437 175.854 121.204C175.161 121.891 173.748 122.701 172.911 123.192C171.998 123.728 170.974 124.03 169.953 124.294C165.471 125.453 160.826 125.958 156.205 125.789C155.706 125.771 155.196 125.746 154.721 125.901C154.246 126.057 153.806 126.436 153.728 126.938" fill="#AACAF9"/>
<path d="M155.175 162.114C155.175 162.817 154.615 163.388 153.925 163.388C153.234 163.388 152.674 162.817 152.674 162.114C152.674 161.41 153.234 160.84 153.925 160.84C154.615 160.84 155.175 161.41 155.175 162.114Z" fill="#AACAF9"/>
<path d="M169.784 162.289C169.784 162.992 169.224 163.563 168.533 163.563C167.843 163.563 167.283 162.992 167.283 162.289C167.283 161.585 167.843 161.015 168.533 161.015C169.224 161.015 169.784 161.585 169.784 162.289Z" fill="#AACAF9"/>
<path d="M184.393 162.114C184.393 162.817 183.833 163.388 183.143 163.388C182.452 163.388 181.892 162.817 181.892 162.114C181.892 161.41 182.452 160.84 183.143 160.84C183.833 160.84 184.393 161.41 184.393 162.114Z" fill="#AACAF9"/>
<path d="M183.505 161.29C181.459 158.357 179.061 156.027 176.243 154.264C174.969 153.466 173.667 152.786 172.314 152.21C171.376 151.811 170.395 151.37 169.407 151.131C169.408 151.107 169.412 151.085 169.412 151.059C169.412 143.034 169.412 135.009 169.412 126.984C169.412 125.897 168.016 125.895 168.016 126.984C168.016 135.009 168.016 143.034 168.016 151.059C168.016 151.078 168.019 151.094 168.02 151.112C167.004 151.345 165.995 151.8 165.031 152.21C163.678 152.786 162.376 153.466 161.102 154.264C158.284 156.027 155.887 158.357 153.84 161.29C153.36 161.978 154.178 162.978 154.662 162.285C156.65 159.436 158.951 157.192 161.689 155.478C162.905 154.717 164.142 154.073 165.434 153.528C166.286 153.168 167.174 152.772 168.07 152.533C168.049 155.956 168.028 159.378 168.008 162.801C168.003 163.624 169.259 163.625 169.265 162.801C169.285 159.382 169.306 155.963 169.327 152.545C170.205 152.786 171.075 153.175 171.912 153.528C173.204 154.073 174.441 154.718 175.656 155.478C178.395 157.192 180.695 159.436 182.683 162.285C183.167 162.978 183.986 161.977 183.505 161.29Z" fill="#AACAF9"/>
<path d="M12.4097 144.147C14.6114 142.126 15.6866 138.476 15.0131 135.536C14.3392 132.597 12.4069 130.071 10.0518 128.239C8.2235 126.817 5.93409 125.732 3.67199 126.158C3.02198 126.281 2.3945 126.527 1.83126 126.88C1.15536 127.303 0.561436 127.899 0.253209 128.644C-0.258266 129.883 0.0983763 131.345 0.809265 132.478C1.10215 132.944 1.4564 133.383 1.62561 133.909C1.83221 134.552 1.73874 135.25 1.76846 135.926C1.8442 137.648 2.743 139.25 3.93948 140.467C5.13643 141.685 5.86362 142.144 7.35346 142.96C8.49146 143.584 11.1222 144.25 12.4097 144.147Z" fill="#AACAF9"/>
<g opacity="0.55">
<path d="M15.0131 135.537C14.7274 134.29 14.2136 133.119 13.5391 132.043C13.4447 132.713 13.3224 133.379 13.1834 134.032C12.8886 135.418 12.6039 136.95 12.0761 138.265C11.5632 139.543 10.4755 139.812 9.29678 139.337C8.62424 139.067 8.02408 138.668 7.32614 138.47C6.59847 138.265 6.10761 138.071 5.5808 137.484C4.65516 136.452 4.23716 135.143 3.93516 133.808C3.58667 132.266 3.11881 130.894 2.50475 129.44C2.18646 128.687 1.77325 127.855 1.63041 127.015C1.03888 127.427 0.529799 127.975 0.253209 128.645C-0.258266 129.884 0.0983763 131.346 0.809265 132.479C1.10215 132.945 1.4564 133.384 1.62561 133.91C1.83221 134.553 1.73874 135.251 1.76846 135.927C1.8442 137.648 2.743 139.251 3.93948 140.468C5.13643 141.686 5.86362 142.145 7.35346 142.961C8.49146 143.584 11.1222 144.25 12.4097 144.147C14.6114 142.127 15.6866 138.476 15.0131 135.537Z" fill="#88B4FF"/>
</g>
<path d="M13.1818 152.396C13.3381 149.627 13.0778 146.835 12.4091 144.146C12.2562 143.532 12.0764 142.924 11.8818 142.322C11.8449 142.201 11.8056 142.081 11.7673 141.96C11.7615 141.943 11.7567 141.926 11.751 141.909C11.7505 141.908 11.75 141.908 11.75 141.907C11.5084 141.156 11.2428 140.414 10.9485 139.683C10.6729 138.999 10.3733 138.325 10.0536 137.661C10.0689 137.647 10.0794 137.628 10.0809 137.602C10.1192 136.779 10.0277 135.954 9.811 135.161C9.78272 135.057 9.62501 135.1 9.65329 135.204C9.84743 135.915 9.93323 136.648 9.91933 137.384C9.36088 136.251 8.74011 135.15 8.0575 134.09C6.92142 132.325 5.61949 130.672 4.17326 129.16C4.09992 129.083 3.98344 129.2 4.05678 129.277C4.86498 130.122 5.62907 131.011 6.34284 131.94C6.73927 132.455 7.11796 132.984 7.48323 133.523C7.02736 133.426 6.56526 133.363 6.0998 133.34C5.99434 133.334 5.99387 133.501 6.09884 133.506C6.6108 133.532 7.11844 133.603 7.61745 133.722C8.37292 134.854 9.05984 136.034 9.67198 137.252C10.1322 138.168 10.5487 139.106 10.9217 140.062C10.0152 139.724 9.10059 139.388 8.24685 138.927C8.15386 138.877 8.07045 139.02 8.16344 139.071C9.06847 139.558 10.0411 139.911 11.0008 140.268C11.2064 140.805 11.3962 141.348 11.5741 141.894C11.5515 141.923 12.9029 145.961 12.9992 150.075C13.0174 150.844 13.0083 151.614 12.9647 152.382C12.9561 152.524 13.1737 152.54 13.1818 152.396Z" fill="#04137A"/>
<path d="M17.5011 142.951C14.7544 137.682 14.6182 131.123 16.9839 125.666C18.2882 122.657 20.4324 119.88 23.4005 118.584C24.4259 118.137 25.5447 117.874 26.6573 117.953C27.7704 118.033 28.8763 118.473 29.6629 119.279C31.1312 120.783 31.2203 123.172 30.9389 125.274C30.3958 129.329 28.8087 133.223 26.4545 136.539C24.1009 139.857 21.0129 140.962 17.5011 142.951Z" fill="#88B4FF"/>
<path d="M15.5085 130.99C15.672 132.065 16.0171 133.124 16.5784 134.156C18.1052 136.963 20.501 135.186 22.5115 134.023C24.8895 132.647 27.0745 131.207 28.2628 128.596C29.6026 125.652 29.477 122.275 29.4708 119.102C29.5355 119.16 29.6021 119.216 29.663 119.279C31.1313 120.783 31.2204 123.172 30.939 125.274C30.3959 129.33 28.8088 133.223 26.4547 136.54C24.1005 139.857 21.0125 140.962 17.5007 142.951C15.6063 139.317 14.9544 135.068 15.5085 130.99Z" fill="#78ADF9"/>
<path d="M17.3592 152.159C16.9292 148.541 17.0428 144.858 17.7005 141.275C17.851 140.455 18.0375 139.644 18.2431 138.838C18.282 138.676 18.3232 138.515 18.3639 138.354C18.3702 138.331 18.3749 138.307 18.3812 138.284C18.3812 138.283 18.3821 138.283 18.3826 138.282C18.6381 137.278 18.9257 136.282 19.2522 135.299C19.558 134.378 19.8959 133.468 20.2612 132.57C20.2401 132.554 20.2248 132.529 20.221 132.496C20.1035 131.42 20.1562 130.331 20.3763 129.271C20.405 129.133 20.6155 129.176 20.5867 129.315C20.3897 130.263 20.3374 131.232 20.4151 132.196C21.0555 130.663 21.7798 129.167 22.5885 127.719C23.9345 125.308 25.5068 123.03 27.2805 120.925C27.3706 120.818 27.5326 120.962 27.4425 121.069C26.4512 122.245 25.5222 123.475 24.6613 124.754C24.1838 125.464 23.7299 126.189 23.2946 126.926C23.8842 126.76 24.4853 126.639 25.0936 126.569C25.2312 126.553 25.2456 126.772 25.1085 126.787C24.4393 126.864 23.7797 127.001 23.1345 127.198C22.2362 128.747 21.4309 130.352 20.7276 132.002C20.1989 133.241 19.7291 134.507 19.3178 135.792C20.4789 135.273 21.6514 134.754 22.7333 134.078C22.8512 134.004 22.972 134.185 22.8541 134.259C21.707 134.975 20.4602 135.519 19.2306 136.069C19.0048 136.79 18.7997 137.518 18.6113 138.25C18.6434 138.286 17.2 143.695 17.409 149.098C17.4479 150.108 17.5226 151.117 17.642 152.121C17.665 152.306 17.3812 152.346 17.3592 152.159Z" fill="#04137A"/>
<path d="M22.6405 151.453C22.6851 151.218 22.5087 151 22.2738 151H8.15139C7.91555 151 7.73915 151.22 7.78516 151.455L8.18399 153.485C8.24199 153.779 8.49605 153.992 8.79086 153.992H21.5686C21.9114 153.992 22.2062 153.744 22.2714 153.401L22.6405 151.453Z" fill="#FEBD9F"/>
<path d="M8.90356 153.857L10.6585 162.793C10.6901 162.954 10.8296 163.071 10.9917 163.071H19.5074C19.6704 163.071 19.8104 162.953 19.8411 162.79L21.5356 153.857H8.90356Z" fill="#FEBD9F"/>
<path d="M19.9719 162.104L21.5361 153.857H8.90356L8.97403 154.216C13.1262 155.856 18.3373 157.608 19.9719 162.104Z" fill="#F2A486"/>
<path d="M144.061 101.652C150.756 121.951 157.681 142.164 164.837 162.29C165.202 163.317 166.792 162.873 166.422 161.834C159.266 141.707 152.341 121.494 145.647 101.196C145.304 100.157 143.715 100.603 144.061 101.652Z" fill="#A3C9EC"/>
<path d="M175.097 102.004H18.9936C18.6187 102.004 18.3143 101.695 18.3143 101.313V100.371C18.3143 99.9888 18.6182 99.6787 18.9936 99.6787H175.097C175.471 99.6787 175.776 99.9883 175.776 100.371V101.313C175.776 101.695 175.472 102.004 175.097 102.004Z" fill="#AACAF9"/>
<path d="M50.7889 101.652C44.0946 121.951 37.1694 142.164 30.0135 162.29C29.6482 163.317 28.0587 162.873 28.4283 161.834C35.5841 141.707 42.5094 121.494 49.2036 101.196C49.5464 100.157 51.135 100.603 50.7889 101.652Z" fill="#AACAF9"/>
<path d="M100.616 93.1959H65.1062C64.5003 93.1959 64.0094 92.6959 64.0094 92.0787V67.5215C64.0094 66.9043 64.5003 66.4043 65.1062 66.4043H100.616C101.222 66.4043 101.713 66.9043 101.713 67.5215V92.0787C101.713 92.6959 101.221 93.1959 100.616 93.1959Z" fill="#AACAF9"/>
<path opacity="0.17" d="M80.1247 66.4043C76.4326 73.1807 69.1982 86.6133 66.2295 93.1959H84.2869L91.601 66.4043H80.1247Z" fill="white"/>
<path d="M89.3591 82.9346H77.2721V99.6797H89.3591V82.9346Z" fill="#8CB8ED"/>
<path d="M84.2723 77.7773C84.2723 78.5718 83.64 79.2158 82.8601 79.2158C82.0801 79.2158 81.4479 78.5718 81.4479 77.7773C81.4479 76.9829 82.0801 76.3389 82.8601 76.3389C83.64 76.3389 84.2723 76.9829 84.2723 77.7773Z" fill="#8CB8ED"/>
<path d="M150.276 80.4758C152.478 78.4553 153.553 74.8049 152.88 71.8654C152.206 68.926 150.273 66.4001 147.918 64.5681C146.09 63.1462 143.801 62.0607 141.539 62.4875C140.889 62.61 140.261 62.8561 139.698 63.2087C139.022 63.6325 138.428 64.2282 138.12 64.9733C137.608 66.2121 137.965 67.6745 138.676 68.8068C138.969 69.2732 139.323 69.7121 139.492 70.238C139.699 70.8816 139.605 71.5793 139.635 72.2556C139.711 73.9768 140.61 75.5788 141.806 76.7966C143.003 78.0144 143.73 78.4739 145.22 79.2893C146.358 79.9123 148.989 80.5784 150.276 80.4758Z" fill="#AACAF9"/>
<g opacity="0.55">
<path d="M152.88 71.8653C152.594 70.6187 152.08 69.4478 151.406 68.3716C151.311 69.042 151.189 69.7075 151.05 70.3613C150.755 71.7471 150.47 73.2788 149.943 74.5943C149.43 75.8716 148.342 76.1411 147.163 75.6665C146.491 75.396 145.891 74.9966 145.193 74.7993C144.465 74.5938 143.974 74.4004 143.447 73.813C142.522 72.7808 142.104 71.4722 141.802 70.1367C141.453 68.5947 140.985 67.2232 140.371 65.7695C140.053 65.0161 139.64 64.1841 139.497 63.3438C138.905 63.7559 138.396 64.3037 138.12 64.9741C137.608 66.2129 137.965 67.6753 138.676 68.8076C138.969 69.2739 139.323 69.7129 139.492 70.2388C139.699 70.8823 139.605 71.5801 139.635 72.2564C139.711 73.9776 140.61 75.5796 141.806 76.7974C143.003 78.0152 143.73 78.4746 145.22 79.2901C146.358 79.9131 148.989 80.5791 150.276 80.4761C152.478 78.4556 153.553 74.8047 152.88 71.8653Z" fill="#88B4FF"/>
</g>
<path d="M151.048 88.7255C151.204 85.9564 150.944 83.1645 150.275 80.4755C150.123 79.8607 149.943 79.2533 149.748 78.6513C149.711 78.5302 149.672 78.41 149.634 78.2894C149.628 78.2724 149.623 78.2548 149.617 78.2377C149.617 78.2367 149.616 78.2367 149.616 78.2357C149.375 77.4852 149.109 76.743 148.815 76.0126C148.539 75.328 148.24 74.6537 147.92 73.9896C147.935 73.9764 147.946 73.9569 147.947 73.931C147.986 73.1078 147.894 72.2836 147.677 71.4896C147.649 71.3866 147.491 71.4296 147.519 71.5331C147.713 72.244 147.799 72.9769 147.785 73.7133C147.227 72.5804 146.606 71.4794 145.923 70.4193C144.787 68.6542 143.485 67.0008 142.04 65.4891C141.966 65.412 141.85 65.5292 141.923 65.6063C142.731 66.451 143.495 67.3397 144.209 68.2689C144.606 68.7845 144.984 69.3133 145.35 69.8519C144.894 69.7543 144.432 69.6918 143.966 69.6683C143.861 69.663 143.86 69.8295 143.965 69.8348C144.477 69.8602 144.985 69.9325 145.484 70.0502C146.239 71.1825 146.926 72.3622 147.538 73.5809C147.999 74.4969 148.415 75.4349 148.788 76.3905C147.882 76.0531 146.967 75.7162 146.113 75.2557C146.02 75.2054 145.936 75.349 146.029 75.3993C146.934 75.8871 147.907 76.2391 148.867 76.5971C149.072 77.1337 149.262 77.6762 149.44 78.223C149.417 78.2518 150.769 82.2894 150.865 86.4032C150.883 87.1728 150.874 87.9423 150.831 88.7109C150.822 88.8525 151.04 88.8686 151.048 88.7255Z" fill="#04137A"/>
<path d="M155.389 82.5618C153.714 79.347 153.631 75.345 155.074 72.0149C155.869 70.179 157.178 68.4846 158.989 67.6941C159.615 67.4212 160.297 67.261 160.976 67.3093C161.656 67.3577 162.331 67.6262 162.81 68.1179C163.706 69.0354 163.761 70.4939 163.589 71.7761C163.258 74.2508 162.289 76.6263 160.853 78.6502C159.417 80.6736 157.532 81.348 155.389 82.5618Z" fill="#88B4FF"/>
<path d="M154.174 75.2632C154.274 75.919 154.484 76.565 154.827 77.1949C155.758 78.9077 157.22 77.8233 158.447 77.1133C159.898 76.2739 161.231 75.3955 161.957 73.8018C162.774 72.0054 162.697 69.9453 162.694 68.0088C162.733 68.0444 162.774 68.0786 162.811 68.1167C163.707 69.0342 163.762 70.4927 163.59 71.7749C163.258 74.2495 162.29 76.625 160.854 78.649C159.417 80.6729 157.533 81.3477 155.39 82.5611C154.234 80.3438 153.836 77.751 154.174 75.2632Z" fill="#78ADF9"/>
<path d="M155.303 88.1804C155.041 85.9728 155.11 83.7253 155.511 81.5392C155.603 81.0392 155.717 80.5441 155.843 80.0524C155.866 79.9538 155.892 79.8556 155.917 79.757C155.92 79.7428 155.923 79.7287 155.927 79.7145L155.928 79.713C156.084 79.1003 156.259 78.4928 156.459 77.8927C156.645 77.3307 156.851 76.7755 157.074 76.2277C157.061 76.2179 157.052 76.2028 157.05 76.1823C156.978 75.5255 157.01 74.861 157.145 74.215C157.162 74.131 157.291 74.1574 157.273 74.2413C157.153 74.82 157.121 75.4108 157.169 75.9997C157.559 75.0646 158.001 74.1515 158.495 73.2677C159.317 71.797 160.276 70.4064 161.358 69.1227C161.413 69.0573 161.512 69.1451 161.456 69.2106C160.851 69.9284 160.285 70.6788 159.76 71.4591C159.468 71.8917 159.191 72.3346 158.926 72.7848C159.286 72.6832 159.653 72.6095 160.024 72.5665C160.108 72.5568 160.116 72.6901 160.033 72.6998C159.624 72.7467 159.222 72.8302 158.828 72.9503C158.28 73.8956 157.789 74.8747 157.359 75.8815C157.037 76.6383 156.75 77.4103 156.499 78.194C157.207 77.8771 157.923 77.5602 158.583 77.1481C158.655 77.1032 158.729 77.2135 158.657 77.2584C157.957 77.6955 157.196 78.027 156.446 78.3629C156.309 78.8029 156.184 79.2467 156.068 79.6935C156.088 79.7155 155.207 83.0158 155.335 86.3122C155.359 86.9289 155.404 87.5441 155.477 88.1569C155.49 88.2702 155.317 88.2946 155.303 88.1804Z" fill="#04137A"/>
<path d="M160.508 87.7827C160.552 87.5479 160.376 87.3301 160.141 87.3301H146.018C145.782 87.3301 145.606 87.5498 145.652 87.7852L146.051 89.815C146.109 90.1094 146.363 90.3218 146.658 90.3218H159.435C159.778 90.3218 160.073 90.0742 160.138 89.731L160.508 87.7827Z" fill="#FEBD9F"/>
<path d="M146.77 90.1875L148.525 99.1226C148.557 99.2842 148.696 99.4009 148.858 99.4009H157.374C157.537 99.4009 157.677 99.2832 157.708 99.1201L159.402 90.1875H146.77Z" fill="#FEBD9F"/>
<path d="M157.839 98.4336L159.403 90.1875H146.77L146.841 90.5459C150.993 92.1865 156.204 93.9385 157.839 98.4336Z" fill="#F2A486"/>
<path d="M125.964 65.8003C125.964 66.4644 126.493 67.0029 127.145 67.0029C127.797 67.0029 128.326 66.4644 128.326 65.8003C128.326 65.1362 127.797 64.5977 127.145 64.5977C126.493 64.5977 125.964 65.1357 125.964 65.8003Z" fill="#AACAF9"/>
<path d="M113.14 97.3633H125.483C126.645 97.3633 127.587 98.4614 127.587 99.8159H111.036C111.036 98.4614 111.978 97.3633 113.14 97.3633Z" fill="#AACAF9"/>
<path d="M120.349 97.9611L127.663 65.6807L127.52 65.4961L110.805 44.0557L110.054 44.6631L126.625 65.9195L119.415 97.7414L120.349 97.9611Z" fill="#8CB8ED"/>
<path d="M102.251 54.3584C104.034 54.3584 105.48 52.8859 105.48 51.0693C105.48 49.2528 104.034 47.7803 102.251 47.7803C100.468 47.7803 99.0219 49.2528 99.0219 51.0693C99.0219 52.8859 100.468 54.3584 102.251 54.3584Z" fill="#8CB8ED"/>
<path d="M105.016 49.374C105.309 49.8691 105.481 50.4478 105.481 51.0689C105.481 52.8853 104.035 54.3579 102.252 54.3579C100.588 54.3579 99.2188 53.0752 99.0428 51.4273C101.296 51.9766 103.712 51.5386 105.016 49.374Z" fill="#8CB8ED"/>
<path d="M108.668 45.8197C109.098 46.3587 109.877 46.4403 110.406 46.0013L112.014 44.6683C112.544 44.2298 112.624 43.4373 112.193 42.8978C111.762 42.3587 110.984 42.2772 110.455 42.7162L108.847 44.0492C108.317 44.4881 108.237 45.2806 108.668 45.8197Z" fill="#AACAF9"/>
<path d="M111.307 59.9559C111.307 59.9559 115.359 50.0672 108.334 43.9832C101.801 38.3259 94.8586 42.6648 93.7753 42.8806L111.307 59.9559Z" fill="#AACAF9"/>
<path d="M123.941 84.915C121.068 86.4502 119.318 89.9175 119.765 93.1909C119.913 94.2779 120.279 95.354 120.168 96.4458C120.031 97.7906 119.199 98.9361 118.529 100.103C117.567 101.779 116.893 103.643 116.706 105.575C116.519 107.507 116.835 109.508 117.74 111.217C118.493 112.639 119.705 113.875 121.229 114.321C121.859 114.506 122.539 114.551 123.17 114.372C123.8 114.193 124.358 113.799 124.796 113.306C126.165 111.767 126.301 109.446 125.903 107.409C125.504 105.372 127.267 105.817 126.914 103.772C126.156 99.3697 125.134 92.3838 124.079 88.0464" fill="#071330"/>
<path d="M165.158 149.173C164.753 148.012 167.522 147.12 166.364 146.688C161.987 145.057 153.213 144.925 148.546 145.197C147.916 145.234 147.287 145.284 146.659 145.343C145.118 145.49 143.616 144.805 142.674 143.554C140.517 140.691 138.51 138.808 138.031 138.319C127.898 140.44 120.818 138.431 120.818 138.431C119.136 140.208 117.753 141.97 116.649 143.546C115.845 144.693 114.511 145.324 113.131 145.229C112.98 145.218 112.83 145.209 112.679 145.2C107.856 144.917 97.0664 145.253 92.5432 146.942C91.3467 147.389 95.9323 148.113 95.5133 149.314C95.1269 150.423 95.6331 151.688 96.4739 152.509C97.3152 153.331 98.4364 153.796 99.5399 154.208C108.278 157.463 117.834 158.518 127.076 157.247C128.61 157.036 130.149 156.752 131.628 156.302C132.613 156.529 133.614 156.699 134.613 156.836C143.557 158.065 152.805 157.046 161.261 153.9C162.329 153.502 163.414 153.053 164.228 152.259C165.042 151.466 165.532 150.244 165.158 149.173Z" fill="#0F1C43"/>
<path d="M155.651 154.358C157.576 153.335 162.453 150.896 161.35 148.989C160.987 148.362 160.786 147.571 160.152 147.235C157.449 145.804 149.778 147.203 146.732 147.194C128.041 147.138 124.505 151.687 113.654 148.084C111.906 147.503 110.154 146.826 108.317 146.737C106.48 146.649 97.6525 145.777 96.5974 147.312C96.5974 147.312 102.404 149.84 110.41 153.183C131.92 162.165 155.651 154.358 155.651 154.358Z" fill="#061230"/>
<path d="M124.905 158.272C130.422 156.731 135.831 154.888 141.092 152.757C145.126 151.123 149.085 149.315 153.283 148.046C157.481 146.778 161.987 146.06 166.365 146.688C168.554 147.003 170.918 147.835 171.796 149.641C172.399 150.881 172.152 152.338 171.517 153.565C170.527 155.478 168.683 156.945 166.702 158.104C162.701 160.444 158.002 161.726 153.256 162.316C148.51 162.908 143.691 162.834 138.903 162.644C131.985 162.37 125.079 161.854 118.207 161.098" fill="#0F1C43"/>
<path d="M135.153 158.379C135.153 158.379 136.692 158.242 137.955 157.309C139.219 156.376 140.478 156.551 141.108 158.029C141.738 159.506 141.948 161.081 144.582 162.656C147.216 164.231 148.152 166.311 147.674 166.623C147.197 166.934 145.808 165.625 144.458 165.155C142.274 164.393 138.244 162.559 137.672 162.228C137.099 161.898 134.274 161.702 134.274 161.702" fill="#F59074"/>
<path d="M141.084 160.816C141.778 161.91 142.967 162.54 144.091 163.074C145.008 163.509 145.887 163.934 146.731 164.396C146.214 163.819 145.505 163.207 144.583 162.656C141.949 161.082 141.739 159.506 141.11 158.029C140.968 157.697 140.794 157.435 140.596 157.232C140.55 158.506 140.309 159.595 141.084 160.816Z" fill="#E26240"/>
<path d="M135.081 161.776C127.995 162.532 129.335 162.37 122.202 162.644C117.265 162.834 112.297 162.907 107.403 162.316C102.509 161.726 97.665 160.444 93.5397 158.104C91.4966 156.945 89.5955 155.478 88.5745 153.565C87.9197 152.338 87.6651 150.881 88.2868 149.641C89.1924 147.835 91.6299 147.003 93.8877 146.688C98.4013 146.06 103.048 146.778 107.375 148.046C111.704 149.315 115.785 151.122 119.945 152.756C125.369 154.887 129.841 156.803 135.529 158.344C135.529 158.344 135.292 159.182 135.157 160.164C135.023 161.148 135.081 161.776 135.081 161.776Z" fill="#0F1C43"/>
<path d="M121.376 110.675C122.214 112.195 123.113 113.78 124.398 114.922C126.165 116.494 128.251 116.606 130.518 116.538C134.06 116.431 136.06 113.091 137.109 109.969C136.647 109.855 136.189 109.727 135.735 109.583C134.909 109.32 134.076 108.993 133.445 108.391C132.456 107.45 131.68 105.968 131.695 104.59C131.711 103.212 131.507 101.867 131.588 100.491H129.1C129.463 102.14 130.719 110.115 121.376 110.675Z" fill="#F3885B"/>
<path d="M121.372 110.67C131.051 110.053 132.814 101.35 132.451 99.6992L125.929 100.443C126.01 101.819 126.183 103.252 126.198 104.63C126.213 106.008 125.597 107.449 124.609 108.391C123.978 108.992 123.144 109.319 122.319 109.582C121.877 109.723 121.43 109.849 120.98 109.961C121.111 110.195 121.241 110.432 121.372 110.67Z" fill="#E26240"/>
<path d="M124.582 89.4741C122.103 90.5185 121.979 96.3277 123.06 99.438C123.527 100.781 124.166 102.092 125.149 103.105C126.132 104.118 127.5 104.806 128.896 104.724C130.149 104.65 131.316 103.964 132.173 103.031C133.03 102.098 133.607 100.932 134.049 99.7354C135.415 96.0405 135.576 91.895 134.502 88.1016" fill="#F3885B"/>
<path d="M122.806 96.8287C122.835 96.3976 122.539 96.003 122.183 95.7696C121.997 95.6476 121.783 95.5562 121.562 95.5597C121.193 95.5655 120.865 95.8448 120.718 96.1891C120.571 96.5338 120.582 96.9293 120.664 97.2955C120.86 98.169 121.499 98.961 122.349 99.192C122.69 99.2848 123.087 99.276 123.357 99.044" fill="#F3885B"/>
<path d="M121.496 96.323C121.055 96.6325 120.939 97.3298 121.255 97.7707C121.35 97.9035 121.559 98.0085 121.657 97.8781C121.72 97.7956 121.686 97.6784 121.669 97.5759C121.633 97.3611 121.687 97.1321 121.815 96.9577C121.894 96.8508 122.001 96.7585 122.034 96.6296C122.067 96.5002 121.979 96.0905 121.496 96.323Z" fill="#E26240"/>
<path d="M126.579 93.701C126.002 93.515 125.134 93.4862 124.533 93.5814C123.932 93.6766 123.438 93.8539 123.153 94.3431C123.362 94.3348 123.73 94.2328 123.926 94.203C124.45 94.1234 125.008 94.0267 125.528 94.1332C125.905 94.2103 126.376 94.3465 126.695 94.2845C126.842 94.2562 126.938 94.2533 127.011 94.1346C127.084 94.016 126.995 93.8631 126.579 93.701Z" fill="#0F1C43"/>
<path d="M130.211 93.701C130.788 93.515 131.657 93.4862 132.257 93.5814C132.858 93.6766 133.353 93.8539 133.637 94.3431C133.428 94.3348 133.06 94.2328 132.865 94.203C132.34 94.1234 131.782 94.0267 131.262 94.1332C130.885 94.2103 130.414 94.3465 130.095 94.2845C129.948 94.2562 129.852 94.2533 129.779 94.1346C129.706 94.016 129.795 93.8631 130.211 93.701Z" fill="#0F1C43"/>
<path d="M126.173 95.9555C125.509 96.5434 124.4 96.6147 123.874 95.8891C123.78 95.7587 123.662 95.5165 123.514 95.6049C123.388 95.6801 123.498 95.872 123.594 96.0033C123.948 96.4926 124.279 96.8417 124.876 96.9233C125.499 97.0082 126.119 96.7988 126.591 96.3813C126.711 96.2743 126.698 96.0649 126.591 95.956C126.471 95.8334 126.293 95.8486 126.173 95.9555Z" fill="#E26240"/>
<path d="M130.709 95.9455C131.373 96.5334 132.482 96.6047 133.008 95.8791C133.102 95.7488 133.22 95.5071 133.368 95.595C133.494 95.6702 133.384 95.862 133.288 95.9934C132.933 96.4831 132.603 96.8318 132.006 96.9133C131.383 96.9983 130.763 96.7888 130.291 96.3713C130.171 96.2644 130.184 96.0549 130.291 95.9455C130.411 95.824 130.588 95.8386 130.709 95.9455Z" fill="#E26240"/>
<path d="M128.413 98.6235C128.323 98.6216 128.317 98.6187 128.215 98.5898C128.13 98.5654 128.06 98.5391 127.988 98.5039C127.937 98.4785 127.889 98.4463 127.84 98.416C128.35 97.8862 128.505 97.2442 128.542 96.499C128.551 96.3364 128.54 96.1338 128.386 96.1338C128.219 96.1338 128.261 96.3745 128.252 96.5371C128.218 97.2222 127.748 97.7759 127.191 98.2271C127.058 98.3345 127.099 98.5396 127.191 98.6528C127.468 98.9917 127.985 99.2168 128.413 99.2256C128.793 99.2334 128.793 98.6318 128.413 98.6235Z" fill="#E26240"/>
<path d="M127.4 100.553C127.764 100.826 128.223 100.962 128.673 100.932C129.123 100.902 129.561 100.705 129.886 100.387" fill="#F4321E"/>
<path opacity="0.43" d="M126.333 98.8096C126.333 99.4028 125.669 99.8838 124.849 99.8838C124.028 99.8838 123.364 99.4028 123.364 98.8096C123.364 98.2163 124.029 97.7354 124.849 97.7354C125.668 97.7354 126.333 98.2163 126.333 98.8096Z" fill="#E26240"/>
<path opacity="0.43" d="M133.728 98.8096C133.728 99.4028 133.063 99.8838 132.243 99.8838C131.423 99.8838 130.759 99.4028 130.759 98.8096C130.759 98.2163 131.423 97.7354 132.243 97.7354C133.063 97.7354 133.728 98.2163 133.728 98.8096Z" fill="#E26240"/>
<path d="M102 141.378C102 141.378 96.1653 143.014 95.1016 143.965C94.0379 144.916 89.8666 146.827 88.2866 144.817C86.7066 142.806 86.9037 141.174 87.7315 140.086C88.5594 138.998 89.4064 137.927 89.6595 138.273C89.9121 138.619 89.9433 139.592 89.6926 140.188C89.4423 140.783 89.2012 141.47 89.751 141.943C90.3009 142.417 91.9465 141.812 91.8521 141.293C91.7576 140.775 89.9294 139.451 89.9016 138.361C89.8738 137.272 90.6019 138.137 91.1033 138.463C91.6047 138.788 93.6703 139.201 94.467 140.189C94.467 140.189 99.0774 138.841 99.7653 138.089" fill="#F59074"/>
<path d="M157.002 141.169C157.002 141.169 162.836 142.805 163.9 143.756C164.964 144.707 169.135 146.618 170.715 144.608C172.295 142.597 172.098 140.965 171.271 139.877C170.443 138.789 169.595 137.718 169.343 138.064C169.09 138.41 169.059 139.383 169.309 139.979C169.56 140.574 169.801 141.261 169.251 141.734C168.701 142.208 167.056 141.603 167.15 141.084C167.244 140.566 169.073 139.242 169.1 138.152C169.128 137.063 168.4 137.928 167.899 138.254C167.398 138.579 165.332 138.992 164.535 139.98C164.535 139.98 159.925 138.632 159.237 137.88" fill="#F59074"/>
<path d="M153.446 131.505C151.638 130.15 150.259 128.292 149.473 126.15C148.052 122.279 145.715 116.113 144.587 114.274C143.09 111.833 141.629 110.882 141.322 110.7C141.324 110.682 141.325 110.669 141.325 110.669L135.734 109.582C128.967 117.064 123.603 109.079 123.603 109.079L117.74 110.875C117.74 110.875 116.098 111.738 114.414 114.484C113.286 116.323 110.948 122.488 109.528 126.36C108.742 128.502 107.363 130.36 105.555 131.714L95.1179 139.533L96.8216 143.803C96.8216 143.803 110.745 141.973 116.135 136.102C117.46 134.658 118.229 132.398 118.637 129.812C118.639 129.887 118.641 129.965 118.642 130.04C118.792 136.788 120.817 138.43 120.817 138.43C128.83 142.093 134.162 138.959 138.03 138.318C139.504 138.074 140.533 135.822 141.191 132.954C141.612 134.115 142.158 135.122 142.865 135.892C148.255 141.764 162.178 143.594 162.178 143.594L163.882 139.324L153.446 131.505Z" fill="#FF624D"/>
<path d="M141.067 133.234C138.435 136.158 133.676 136.918 130.162 135.433C127.881 134.469 125.651 134.775 123.346 134.033C121.569 133.46 119.97 132.232 118.725 130.814C118.71 130.832 118.693 130.846 118.678 130.863C118.969 136.908 120.817 138.431 120.817 138.431C128.831 142.093 134.162 138.959 138.031 138.319C139.474 138.08 140.489 135.915 141.149 133.134C141.121 133.167 141.097 133.201 141.067 133.234Z" fill="#EF3420"/>
<path d="M153.283 138.979C149.138 137.362 145.379 135.274 141.695 132.761C141.625 132.714 141.561 132.663 141.498 132.612C141.421 132.757 141.333 132.899 141.226 133.039C141.642 134.163 142.176 135.141 142.865 135.893C148.255 141.764 162.179 143.594 162.179 143.594L162.996 141.545C159.614 141.958 156.549 140.252 153.283 138.979Z" fill="#EF3420"/>
<path d="M114.38 134.262C112.226 135.9 110.525 137.661 108.116 138.984C105.653 140.337 103.008 141.416 100.413 142.466C98.7133 143.154 97.4986 143.027 96.2585 142.393L96.8218 143.804C96.8218 143.804 110.746 141.974 116.135 136.103C117.218 134.923 117.924 133.192 118.37 131.188C117.218 132.382 115.743 133.225 114.38 134.262Z" fill="#EF3420"/>
<path d="M129.558 112.659C129.56 113.659 129.283 115.356 128.605 116.08C127.916 116.817 126.528 117.215 125.613 116.805C124.697 116.396 124.11 115.869 123.576 115.008C122.489 113.254 121.911 111.553 121.922 109.479L123.862 108.835C123.862 108.835 126.869 112.52 129.558 112.659Z" fill="white"/>
<path d="M129.557 112.659C129.592 113.658 129.933 115.343 130.636 116.041C131.354 116.751 132.754 117.094 133.654 116.65C134.553 116.206 135.121 115.656 135.622 114.775C136.643 112.981 137.158 111.259 137.069 109.187L135.107 108.618C135.107 108.617 132.238 112.416 129.557 112.659Z" fill="white"/>
<g opacity="0.54">
<path d="M129.519 116.104C130.346 121.968 129.686 127.895 129.572 133.782C129.541 135.429 129.552 137.078 129.647 138.722C129.662 138.999 130.088 139.001 130.071 138.722C129.731 132.797 130.492 126.88 130.33 120.953C130.284 119.292 130.161 117.634 129.929 115.989C129.89 115.714 129.481 115.831 129.519 116.104Z" fill="white"/>
</g>
<path d="M118.554 116.203C119.101 116.203 119.102 115.337 118.554 115.337C118.008 115.337 118.007 116.203 118.554 116.203Z" fill="white"/>
<path d="M115.256 122.219C115.803 122.219 115.804 121.354 115.256 121.354C114.709 121.354 114.708 122.219 115.256 122.219Z" fill="white"/>
<path d="M122.159 126.283C122.706 126.283 122.707 125.417 122.159 125.417C121.612 125.417 121.611 126.283 122.159 126.283Z" fill="white"/>
<path d="M126.072 120.109C126.619 120.109 126.62 119.243 126.072 119.243C125.525 119.244 125.524 120.109 126.072 120.109Z" fill="white"/>
<path d="M112.263 128.08C112.81 128.08 112.811 127.214 112.263 127.214C111.717 127.214 111.716 128.08 112.263 128.08Z" fill="white"/>
<path d="M123.465 132.534C124.012 132.534 124.013 131.668 123.465 131.668C122.918 131.668 122.917 132.534 123.465 132.534Z" fill="white"/>
<path d="M122.007 137.692C122.554 137.692 122.555 136.826 122.007 136.826C121.46 136.826 121.459 137.692 122.007 137.692Z" fill="white"/>
<path d="M128.066 138.161C128.613 138.161 128.614 137.295 128.066 137.295C127.519 137.295 127.518 138.161 128.066 138.161Z" fill="white"/>
<path d="M127.836 127.767C128.383 127.767 128.384 126.901 127.836 126.901C127.289 126.901 127.288 127.767 127.836 127.767Z" fill="white"/>
<path d="M134.128 120.344C134.675 120.344 134.676 119.479 134.128 119.479C133.581 119.479 133.58 120.344 134.128 120.344Z" fill="white"/>
<path d="M132.746 127.923C133.293 127.923 133.294 127.058 132.746 127.058C132.2 127.058 132.199 127.923 132.746 127.923Z" fill="white"/>
<path d="M137.656 130.112C138.203 130.112 138.204 129.246 137.656 129.246C137.109 129.247 137.109 130.112 137.656 130.112Z" fill="white"/>
<path d="M133.744 135.816C134.291 135.816 134.291 134.95 133.744 134.95C133.197 134.95 133.196 135.816 133.744 135.816Z" fill="white"/>
<path d="M139.497 121.907C140.044 121.907 140.045 121.041 139.497 121.041C138.95 121.042 138.949 121.907 139.497 121.907Z" fill="white"/>
<path d="M141.8 115.264C142.347 115.264 142.348 114.398 141.8 114.398C141.253 114.398 141.252 115.264 141.8 115.264Z" fill="white"/>
<path d="M145.634 124.329C146.181 124.329 146.182 123.463 145.634 123.463C145.087 123.463 145.086 124.329 145.634 124.329Z" fill="white"/>
<path d="M141.414 129.565C141.961 129.565 141.962 128.699 141.414 128.699C140.868 128.699 140.867 129.565 141.414 129.565Z" fill="white"/>
<path d="M146.249 136.128C146.796 136.128 146.797 135.263 146.249 135.263C145.702 135.263 145.701 136.128 146.249 136.128Z" fill="white"/>
<path d="M149.777 131.127C150.324 131.127 150.325 130.262 149.777 130.262C149.231 130.262 149.23 131.127 149.777 131.127Z" fill="white"/>
<path d="M154.609 136.675C155.156 136.675 155.157 135.81 154.609 135.81C154.062 135.81 154.061 136.675 154.609 136.675Z" fill="white"/>
<path d="M151.005 139.801C151.552 139.801 151.553 138.936 151.005 138.936C150.458 138.936 150.457 139.801 151.005 139.801Z" fill="white"/>
<path d="M158.907 141.208C159.454 141.208 159.455 140.342 158.907 140.342C158.36 140.342 158.359 141.208 158.907 141.208Z" fill="white"/>
<path d="M116.33 131.44C116.877 131.44 116.877 130.574 116.33 130.574C115.783 130.574 115.782 131.44 116.33 131.44Z" fill="white"/>
<path d="M111.804 137.77C112.351 137.77 112.352 136.904 111.804 136.904C111.257 136.904 111.256 137.77 111.804 137.77Z" fill="white"/>
<path d="M110.268 132.925C110.815 132.925 110.815 132.06 110.268 132.06C109.721 132.06 109.72 132.925 110.268 132.925Z" fill="white"/>
<path d="M104.439 134.332C104.985 134.332 104.986 133.466 104.439 133.466C103.892 133.466 103.891 134.332 104.439 134.332Z" fill="white"/>
<path d="M105.13 139.098C105.677 139.098 105.678 138.232 105.13 138.232C104.583 138.232 104.582 139.098 105.13 139.098Z" fill="white"/>
<path d="M99.3744 138.239C99.9214 138.239 99.9223 137.373 99.3744 137.373C98.8275 137.373 98.8265 138.239 99.3744 138.239Z" fill="white"/>
<path d="M97.7644 142.146C98.3113 142.146 98.3123 141.28 97.7644 141.28C97.2174 141.28 97.217 142.146 97.7644 142.146Z" fill="white"/>
<path d="M122.623 86.6984C123.034 88.2067 124.004 89.549 125.296 90.3962C127.803 92.0393 131.356 91.8435 133.375 94.0774C134.294 95.094 134.741 96.5368 134.553 97.9045C134.201 100.455 131.885 102.292 131.196 104.77C130.878 105.914 130.928 107.136 131.147 108.304C131.413 109.719 131.943 111.114 132.878 112.195C134.419 113.973 137.076 114.677 139.243 113.806C141.409 112.936 142.89 110.508 142.615 108.153C142.5 107.166 142.112 106.226 142.021 105.237C141.876 103.655 142.496 102.12 143.002 100.618C143.508 99.1155 143.905 97.4446 143.332 95.9675C142.773 94.5271 141.407 93.5754 140.656 92.2277C139.642 90.406 139.867 88.0861 138.913 86.2311C138.188 84.8215 136.855 83.8347 135.459 83.1218C132.202 81.4592 128.148 81.0939 124.957 82.8835C123.7 83.5886 122.541 84.7458 122.416 86.2019" fill="#071330"/>
<path d="M57.7123 12.7664C57.7123 12.7664 58.3206 13.7171 59.2285 15.1419C59.2846 15.0921 59.3397 15.0432 59.3963 14.9929C60.3339 14.1594 61.1819 13.2298 62.028 12.2991C61.7988 12.0657 61.5908 11.864 61.4144 11.7102C58.9725 9.57789 57.3111 5.08813 56.6769 1.96263C56.0427 -1.16286 55.1688 0.381571 55.1688 0.381571C55.1688 0.381571 55.582 8.11841 55.4521 9.92896C55.3227 11.7395 57.7123 12.7664 57.7123 12.7664Z" fill="#F3885B"/>
<path d="M53.3401 12.7664C53.3401 12.7664 52.7318 13.7171 51.8239 15.1419C51.7678 15.0921 51.7127 15.0432 51.6561 14.9929C50.7185 14.1594 49.8705 13.2298 49.0244 12.2991C49.2535 12.0657 49.4616 11.864 49.638 11.7102C52.0798 9.57789 53.7413 5.08813 54.3755 1.96263C55.0097 -1.16286 55.8836 0.381571 55.8836 0.381571C55.8836 0.381571 55.4703 8.11841 55.6003 9.92896C55.7302 11.7395 53.3401 12.7664 53.3401 12.7664Z" fill="#F3885B"/>
<path d="M51.8924 36.6592C52.2812 37.8379 52.8655 40.0523 52.2423 41.1216C51.6192 42.1904 51.159 42.9961 47.8572 43.5786C48.4573 45.2984 50.705 50.4038 52.3938 51.0132C54.0826 51.6226 56.8173 51.5303 58.3077 50.5176C59.1954 49.9146 60.8727 44.564 61.6013 43.7695C59.8795 43.5025 58.2329 42.6636 57.7454 41.4605C57.2584 40.2573 57.3034 38.8423 57.8667 37.6738" fill="#F3885B"/>
<g opacity="0.5">
<path d="M49.1663 43.354C52.0563 43.2456 56.825 42.6328 57.4506 38.9888C57.5694 38.2969 57.6797 37.7842 58.0742 37.4512L51.8919 36.6602C52.2807 37.8389 52.865 40.0532 52.2419 41.1226C51.6187 42.1914 51.1585 42.9971 47.8567 43.5796C47.8692 43.6148 47.8864 43.6602 47.8998 43.6983C48.2785 43.4946 48.7075 43.3711 49.1663 43.354Z" fill="#E06338"/>
</g>
<path d="M62.8863 30.9732C62.8091 30.603 62.6366 30.2222 62.3077 30.0464C61.9338 29.8467 61.4976 29.9732 61.1266 30.2105C61.1266 28.2256 60.7292 26.2334 60.0969 24.3604L49.0425 24.8281C48.9034 26.0376 48.5315 28.8335 48.5842 30.0449C48.2975 29.9307 47.9965 29.9024 47.7271 30.0459C47.3983 30.2217 47.2252 30.6026 47.1485 30.9727C46.9692 31.8345 47.2032 32.7715 47.7506 33.4536C48.1647 33.9702 48.7505 34.335 49.3857 34.4986C49.878 35.92 50.5802 37.0332 51.9953 38.3428C52.3912 38.7095 52.8936 38.9268 53.3725 39.1578C54.0196 39.4703 54.7133 39.7481 55.4189 39.6768C55.916 39.6265 56.3853 39.4053 56.8191 39.1392C58.4618 38.1314 59.6751 36.4536 60.3841 34.5533C61.1194 34.4322 61.8126 34.041 62.2842 33.4531C62.8312 32.7715 63.0656 31.8345 62.8863 30.9732Z" fill="#F3885B"/>
<path d="M53.8861 28.2352C51.5568 27.5267 50.4193 28.0047 49.3058 28.7708C50.3479 28.7279 50.7995 28.6209 51.8262 28.7547C52.0669 28.786 52.6896 28.806 52.9345 28.8348C53.1795 28.8636 53.6464 28.8953 53.8578 28.784C54.0682 28.6727 54.1976 28.4159 53.8861 28.2352Z" fill="#003236"/>
<path d="M55.2518 30.1713C55.1458 31.0966 55.3462 32.0736 55.9085 32.8212C55.9751 32.9096 56.0442 33.0013 56.1213 33.0804C56.1798 33.1405 56.1515 33.0888 56.1276 33.1083C56.0902 33.139 56.0442 33.163 56.0015 33.1849C55.8524 33.2616 55.6818 33.3007 55.5169 33.3192C55.3716 33.3353 55.2249 33.3363 55.0792 33.33C54.9968 33.3265 54.9133 33.3124 54.8314 33.329C54.561 33.3837 54.6751 33.8051 54.9455 33.7504C54.8458 33.7709 54.9512 33.7601 54.9862 33.7621C55.0505 33.766 55.1152 33.7694 55.1794 33.7704C55.3577 33.7733 55.536 33.7601 55.712 33.7299C56.048 33.6732 56.7359 33.4428 56.5508 32.9735C56.4612 32.7465 56.2426 32.5687 56.1146 32.3607C55.9862 32.1522 55.8845 31.9301 55.8107 31.6957C55.6554 31.202 55.6223 30.6849 55.6813 30.1713C55.7124 29.8925 55.2834 29.8944 55.2518 30.1713Z" fill="#E26439"/>
<g opacity="0.5">
<path d="M53.693 35.4976C54.0592 35.9409 54.6364 36.1939 55.2044 36.1611C55.7724 36.1279 56.3175 35.8096 56.6324 35.3271" fill="#E82D1F"/>
</g>
<path d="M52.864 30.6717C52.6239 30.9832 52.1608 30.9842 51.8085 30.9353C51.3943 30.8777 50.9902 30.7034 50.6681 30.4309C50.5789 30.3553 50.4519 30.3421 50.3647 30.4309C50.2884 30.5086 50.275 30.6643 50.3647 30.74C50.7793 31.0911 51.2735 31.3064 51.8085 31.3728C52.2701 31.4295 52.8573 31.3841 53.1675 30.9812C53.2389 30.8885 53.2562 30.7625 53.1675 30.6722C53.0932 30.596 52.9359 30.5784 52.864 30.6717Z" fill="#E26439"/>
<path d="M59.6643 30.4248C59.3791 30.6323 59.0536 30.7764 58.708 30.8496C58.3365 30.9282 57.8226 30.9668 57.5436 30.6509C57.3586 30.4414 57.0557 30.7515 57.2402 30.96C57.6098 31.3779 58.2349 31.377 58.7372 31.2876C59.2051 31.2041 59.6432 30.9922 60.0162 30.6938C59.8887 30.6143 59.7717 30.5239 59.6643 30.4248Z" fill="#E26439"/>
<path opacity="0.35" d="M52.6234 33.3462C52.6234 33.919 51.9566 34.3828 51.1345 34.3828C50.3124 34.3828 49.6456 33.919 49.6456 33.3462C49.6456 32.7739 50.3124 32.3096 51.1345 32.3096C51.9566 32.3096 52.6234 32.7734 52.6234 33.3462Z" fill="#F44A38"/>
<path opacity="0.35" d="M60.3661 33.4448C60.3661 34.0176 59.6993 34.4815 58.8772 34.4815C58.0551 34.4815 57.3883 34.0176 57.3883 33.4448C57.3883 32.8726 58.0551 32.4082 58.8772 32.4082C59.6993 32.4082 60.3661 32.8726 60.3661 33.4448Z" fill="#F44A38"/>
<path d="M60.7667 33.1497C60.5975 33.1048 60.5649 32.6599 60.6939 32.156C60.8228 31.6521 61.0644 31.28 61.2331 31.325C61.4023 31.3699 61.4349 31.8147 61.306 32.3186C61.177 32.8225 60.9359 33.1946 60.7667 33.1497Z" fill="#E26439"/>
<path d="M49.2075 33.3323C49.0364 33.3675 48.8159 32.9822 48.7148 32.4715C48.6141 31.9612 48.6711 31.5188 48.8423 31.4837C49.0134 31.4485 49.2339 31.8338 49.3346 32.3445C49.4357 32.8553 49.3787 33.2972 49.2075 33.3323Z" fill="#E26439"/>
<path d="M63.5848 27.0626C63.6107 25.3394 62.977 24.2823 62.29 23.6436C61.4042 22.8209 60.6799 21.8502 60.0946 20.7842C59.5237 19.7447 58.3449 18.5699 55.9117 18.0264C52.1094 17.1773 50.6249 19.168 50.158 20.0792C50.0266 20.335 49.7884 20.5152 49.5113 20.5787C45.8567 21.4151 47.0167 27.6343 47.0167 27.6343C47.0167 27.6343 47.6495 30.2882 48.6418 31.2808C49.8656 30.0933 50.9336 27.564 50.7385 25.6885C51.1876 25.7979 51.6373 26.0172 52.0438 26.2364C52.8213 26.6553 53.6031 27.0772 54.2963 27.629C55.0254 28.2095 55.6495 28.9293 56.4361 29.4263C57.2707 29.9542 58.25 30.2047 59.2274 30.3023C59.2274 30.3023 59.2984 30.3101 59.4201 30.316C59.4983 30.3219 59.5759 30.3282 59.6545 30.3311C59.8856 30.7769 60.1928 31.1866 60.5332 31.4132C60.8457 31.0123 61.1621 30.546 61.4406 30.0552C62.5038 29.7003 63.557 28.8892 63.5848 27.0626Z" fill="#071330"/>
<path d="M53.9419 154.467C53.6749 156.452 53.8039 157.449 52.6932 160.181C52.513 160.624 52.2627 161.579 52.8054 162.227C53.0479 162.516 53.4353 162.824 54.1529 162.926C57.0717 163.339 60.1808 162.956 63.0267 163.791C64.5079 164.225 66.0774 164.313 67.5581 163.925C67.9862 163.813 68.0135 163.19 67.5979 163.038C66.9632 162.806 66.2101 162.846 65.4916 162.622C63.3954 161.967 61.2622 161.164 59.6348 159.567C58.0074 157.971 56.9964 155.392 57.6905 153.117" fill="#F3885B"/>
<path d="M47.7263 96.0471C48.6889 96.1902 49.4879 95.3083 50.2214 94.6071C50.9548 93.906 52.0995 93.3327 52.8324 94.0344C53.1085 94.299 53.2528 94.6936 53.3391 95.0856C53.6181 96.3493 53.3971 97.6711 53.3358 98.9699C53.1555 102.774 54.3582 106.56 54.0073 110.349C52.4149 108.366 52.2169 105.443 50.9069 103.223C50.0517 101.775 48.7703 100.707 47.5159 99.6692" fill="#F3885B"/>
<path d="M67.4151 84.7773C67.1966 83.6875 67.2896 82.3755 66.8217 80.3432C66.421 78.6025 66.4234 75.7172 65.5303 74.4335C65.1689 73.9135 63.5688 75.2553 62.9921 75.4169C57.9315 76.8339 52.5512 76.8452 47.4858 75.4492C46.8852 75.2836 45.0612 73.9721 44.8316 74.6054C44.8316 74.6054 42.8854 78.1132 40.4901 79.333C38.1935 80.5024 20.7789 88.7847 18.2996 96.7564C18.2829 96.8003 18.2627 96.8428 18.2474 96.8877C18.1621 97.1416 18.1088 97.4009 18.0801 97.6626C18.0734 97.7036 18.0604 97.7451 18.0542 97.7861L18.071 97.7817C17.9406 99.4365 18.861 101.155 20.1591 102.091C21.9312 103.369 24.2125 103.479 26.2877 103.419C27.8159 103.376 29.3397 103.23 30.854 103.017C34.7138 102.473 38.5736 101.928 42.4339 101.383C44.5181 101.089 44.9769 100.93 47.0779 100.961C47.4345 100.966 48.3386 100.933 48.5505 100.8C48.886 100.59 48.8381 100.41 48.8371 99.9844C48.8338 98.647 49.0409 97.5615 49.0375 96.2241C49.037 96.0581 49.1017 95.3965 49.0126 95.2622C48.9258 95.1314 48.5347 95.0908 48.3885 95.0698C47.3257 94.9185 44.243 94.9189 43.4103 94.7607C44.2056 94.6821 44.9821 95.1318 48.7207 93.6475C49.8783 93.188 51.024 92.5532 52.0929 91.8486L52.475 155.332C52.787 155.529 53.101 155.682 53.4145 155.817C53.4821 155.976 53.6317 156.091 53.811 156.095C53.9361 156.097 54.0617 156.095 54.1873 156.094C57.3127 156.996 60.185 155.332 60.185 155.332C64.7039 143.212 63.8545 124.597 65.7781 111.243C65.9104 110.623 66.0341 110.001 66.1386 109.375C66.2776 108.54 66.4075 107.755 66.5331 106.995C66.5336 106.992 66.5346 106.989 66.5346 106.986C68.1155 91.7246 67.4151 84.7773 67.4151 84.7773Z" fill="#0F1C43"/>
<path d="M48.9271 98.229C48.4415 98.4654 47.873 98.5718 47.2378 98.48C42.5243 97.7993 37.8002 98.0679 33.1878 99.2505C28.8146 100.372 24.7008 101.847 20.1814 102.106C21.9502 103.368 24.2205 103.479 26.2875 103.419C27.8157 103.376 29.3395 103.231 30.8538 103.017C34.7136 102.473 38.5734 101.928 42.4337 101.383C44.5179 101.089 44.9767 100.93 47.0777 100.961C47.4344 100.966 48.3384 100.933 48.5503 100.8C48.8858 100.59 48.8379 100.41 48.837 99.9844C48.835 99.3614 48.8801 98.794 48.9271 98.229Z" fill="#061230"/>
<path d="M67.4147 84.7769C67.2105 83.7598 67.2723 82.5415 66.9018 80.7334C60.5503 85.0274 52.9563 84.9937 45.4826 86.5479C40.7399 87.5342 35.9516 88.8086 31.6325 91.0869C29.3105 92.3116 26.5173 93.9029 24.26 95.8379C27.7215 95.0664 31.0741 93.8042 34.5945 93.1582C39.3282 92.2896 43.9597 92.3389 48.7135 93.0259C49.0356 93.0723 49.3146 93.1612 49.5553 93.2813C50.1262 93.0132 50.6913 92.7115 51.2412 92.3824C51.0672 89.4834 55.7083 88.4737 56.7413 91.6455C60.5311 103.284 60.0997 114.906 59.7469 126.978C59.6194 131.336 59.0173 135.684 58.9799 140.037C58.9679 141.435 58.9584 142.945 59.3811 144.29C59.4574 144.532 59.5537 145.029 59.7503 145.311C59.7714 145.212 60.1237 145.181 60.4132 145.08C61.3249 144.763 62.0943 144.928 62.6695 145.358C64.4528 134.351 64.3291 121.303 65.7787 111.241C65.911 110.622 66.0346 110 66.1391 109.373C66.2782 108.539 66.4081 107.754 66.5337 106.993C66.5341 106.991 66.5351 106.988 66.5351 106.985C68.1151 91.7241 67.4147 84.7769 67.4147 84.7769Z" fill="#061230"/>
<path d="M26.435 87.5947C30.4252 85.0361 34.9734 83.3618 39.5153 82.1508C43.923 80.9756 48.3733 80.3769 52.8721 79.7192C57.4164 79.0547 61.873 78.059 65.3767 74.8432C65.4649 74.7622 65.5545 74.6899 65.6451 74.623C65.6082 74.5581 65.5713 74.4931 65.5305 74.4345C65.1691 73.9145 63.569 75.2563 62.9923 75.4179C57.9317 76.8349 52.5514 76.8461 47.4861 75.4501C46.8854 75.2846 45.0615 73.9731 44.8318 74.6064C44.8318 74.6064 42.8856 78.1142 40.4903 79.3339C39.0954 80.0444 32.1245 83.3808 26.309 87.6763C26.3511 87.6489 26.3933 87.6216 26.435 87.5947Z" fill="#061230"/>
<path d="M59.7388 9.61719L57.0141 13.4805L71.3196 27.688C71.3196 27.688 62.3494 40.7247 60.3653 42.6944L57.922 41.7989C54.9366 44.984 51.688 41.9576 51.688 41.9576L49.9244 42.5308C47.6734 40.1099 39.1259 27.688 39.1259 27.688L53.4314 13.4805L50.7072 9.61719C50.7072 9.61719 29.1577 22.9317 29.7564 25.4224C30.3551 27.9131 30.9711 32.6339 40.2366 45.8961C42.5361 49.1876 43.166 58.0201 43.166 58.0201C43.8438 63.9225 43.8227 75.4059 43.8227 75.4059C51.5274 79.9499 65.865 75.2253 65.865 75.2253C65.865 75.2253 66.7154 64.6955 66.9901 58.6681C66.9901 58.6681 66.8103 51.0206 70.209 45.8956C79.1547 32.4073 80.0904 27.9126 80.6892 25.4219C81.2884 22.9317 59.7388 9.61719 59.7388 9.61719Z" fill="#8969E2"/>
<path opacity="0.94" d="M67.8621 51.4961C67.2936 52.3872 66.7562 53.2915 66.4547 54.3115C65.8948 56.2046 65.5664 58.2295 65.1906 60.167C64.5061 63.6958 64.3105 67.8248 62.163 70.8238C57.9398 76.7218 50.0165 75.7398 43.8438 74.8917C43.8362 74.8907 43.8294 74.8887 43.8218 74.8878C43.8227 75.2213 43.8223 75.4063 43.8223 75.4063C51.527 79.9503 65.8646 75.2257 65.8646 75.2257C65.8646 75.2257 66.715 64.6958 66.9896 58.6685C66.9896 58.6685 66.9115 55.2759 67.8621 51.4961Z" fill="#5F42C6"/>
<path opacity="0.94" d="M42.9076 22.0737C41.1819 23.44 36.5369 25.2066 36.5403 27.6602C36.5446 30.5806 40.0909 33.5376 41.9417 35.3941C44.117 37.5757 46.1342 40.2525 49.0141 41.48C49.028 41.4859 49.04 41.4932 49.0539 41.4991C46.0182 37.7032 39.1274 27.689 39.1274 27.689L51.9205 14.9834C48.7083 17.0718 45.9127 19.6943 42.9076 22.0737Z" fill="#5F42C6"/>
<path opacity="0.94" d="M70.5302 33.5294C73.0602 31.5044 76.5308 29.211 75.1262 25.3599C74.0108 22.3008 70.4856 20.4126 67.7106 19.2647C64.0061 17.7324 60.4214 16.6177 57.5918 13.5693C57.4614 13.4287 57.3526 13.2842 57.2572 13.1367L57.0146 13.4805L71.3201 27.688C71.3201 27.688 65.2529 36.5054 61.9947 40.7315C63.6394 39.9581 65.2337 39.1231 66.5155 37.7901C67.8994 36.3516 68.9535 34.7911 70.5302 33.5294Z" fill="#5F42C6"/>
<path d="M54.7113 43.3449C54.7113 43.3449 53.6236 43.9382 53.7382 45.0168C53.8528 46.0954 55.1235 46.0412 55.1235 46.0412C55.1235 46.0412 56.4025 45.8796 56.3718 44.9089C56.3411 43.9382 55.5161 43.0754 54.7113 43.3449Z" fill="white"/>
<path d="M54.3647 45.8843C54.3647 45.8843 53.0052 49.7861 52.477 57.649C51.9607 65.3335 51.9209 66.1426 51.9209 66.1426L54.4486 69.0128L56.9633 66.3853C56.9633 66.3853 57.2212 50.4902 55.4542 45.5557L54.3647 45.8843Z" fill="white"/>
<path d="M54.6718 48.0664C54.9254 48.0664 54.9259 47.665 54.6718 47.665C54.4182 47.6646 54.4178 48.0664 54.6718 48.0664Z" fill="#061230"/>
<path d="M55.9005 50.46C56.1541 50.46 56.1546 50.0586 55.9005 50.0586C55.6464 50.0586 55.6464 50.46 55.9005 50.46Z" fill="#061230"/>
<path d="M53.8701 52.2549C54.1236 52.2549 54.1241 51.8535 53.8701 51.8535C53.6165 51.853 53.616 52.2549 53.8701 52.2549Z" fill="#061230"/>
<path d="M55.5263 55.6816C55.7799 55.6816 55.7804 55.2803 55.5263 55.2803C55.2727 55.2803 55.2722 55.6816 55.5263 55.6816Z" fill="#061230"/>
<path d="M53.2289 57.8584C53.4825 57.8584 53.483 57.457 53.2289 57.457C52.9754 57.457 52.9749 57.8584 53.2289 57.8584Z" fill="#061230"/>
<path d="M56.06 59.9795C56.3136 59.9795 56.3141 59.5781 56.06 59.5781C55.8064 59.5781 55.8059 59.9795 56.06 59.9795Z" fill="#061230"/>
<path d="M52.9621 61.666C53.2157 61.666 53.2162 61.2646 52.9621 61.2646C52.7085 61.2642 52.708 61.666 52.9621 61.666Z" fill="#061230"/>
<path d="M54.8854 63.2979C55.139 63.2979 55.1395 62.8965 54.8854 62.8965C54.6319 62.8965 54.6314 63.2979 54.8854 63.2979Z" fill="#061230"/>
<path d="M52.9621 65.6377C53.2157 65.6377 53.2162 65.2363 52.9621 65.2363C52.7085 65.2363 52.708 65.6377 52.9621 65.6377Z" fill="#061230"/>
<path d="M56.1137 65.6377C56.3673 65.6377 56.3678 65.2363 56.1137 65.2363C55.8601 65.2363 55.8596 65.6377 56.1137 65.6377Z" fill="#061230"/>
<path d="M54.7778 67.5415C55.0313 67.5415 55.0318 67.1396 54.7778 67.1396C54.5242 67.1396 54.5237 67.5415 54.7778 67.5415Z" fill="#061230"/>
<path d="M55.3024 44.7422C55.556 44.7422 55.5565 44.3408 55.3024 44.3408C55.0488 44.3408 55.0484 44.7422 55.3024 44.7422Z" fill="#061230"/>
<path opacity="0.94" d="M55.2227 43.2402L57.1818 46.7539L60.3652 42.6948L57.745 41.46L55.2227 43.2402Z" fill="#5F42C6"/>
<path opacity="0.94" d="M54.7841 43.2559L52.7698 46.6734L49.9248 42.5313L52.0901 41.3789L54.7841 43.2559Z" fill="#5F42C6"/>
</svg>
