<svg width="230" height="169" viewBox="0 0 230 169" fill="none" xmlns="http://www.w3.org/2000/svg">
<g opacity="0.57">
<path d="M59.882 128.936C59.6386 128.936 59.4419 128.727 59.4419 128.468C59.4419 112.48 65.746 97.0345 76.7386 86.0925C78.6822 84.1574 80.7773 82.3577 82.9653 80.7435C83.1642 80.5968 83.4389 80.6486 83.5779 80.8608C83.7166 81.0729 83.6673 81.3639 83.4675 81.5111C81.3152 83.0991 79.254 84.8703 77.3407 86.7746C66.5255 97.5404 60.3226 112.737 60.3226 128.469C60.3222 128.727 60.1254 128.936 59.882 128.936Z" fill="#3AAED5"/>
<path d="M168.436 128.935C168.193 128.935 167.996 128.727 167.996 128.468C167.996 121.944 166.969 115.545 164.943 109.451C164.862 109.207 164.983 108.941 165.211 108.855C165.441 108.771 165.692 108.897 165.773 109.14C167.832 115.335 168.876 121.838 168.876 128.468C168.876 128.727 168.679 128.935 168.436 128.935Z" fill="#3AAED5"/>
<path d="M164.186 106.545C164.014 106.545 163.851 106.438 163.78 106.26C159.548 95.6187 152.462 86.6759 143.287 80.399C143.083 80.2593 143.024 79.9701 143.156 79.7533C143.288 79.5365 143.56 79.4734 143.764 79.6141C153.088 85.9933 160.29 95.0818 164.59 105.897C164.685 106.135 164.58 106.409 164.356 106.509C164.301 106.533 164.243 106.545 164.186 106.545Z" fill="#3AAED5"/>
<path d="M86.778 79.179C86.6266 79.179 86.4796 79.0964 86.3977 78.9478C86.2754 78.7249 86.3458 78.439 86.5553 78.3087C94.8951 73.1264 104.44 70.3867 114.158 70.3867C122.253 70.3867 130.045 72.2186 137.32 75.832C137.54 75.9413 137.635 76.2193 137.532 76.4534C137.429 76.6865 137.167 76.7874 136.947 76.6786C129.79 73.1241 122.122 71.3216 114.158 71.3216C104.596 71.3216 95.2054 74.0169 86.9998 79.115C86.9303 79.1585 86.8537 79.179 86.778 79.179Z" fill="#3AAED5"/>
<path d="M50.2207 128.935C49.9773 128.935 49.7805 128.726 49.7805 128.468C49.7805 101.373 64.8791 76.8105 88.2463 65.892C88.4712 65.7864 88.7287 65.8952 88.8264 66.1312C88.9245 66.3671 88.8233 66.6432 88.601 66.747C65.553 77.5165 50.6608 101.744 50.6608 128.468C50.6608 128.726 50.4636 128.935 50.2207 128.935Z" fill="#3AAED5"/>
<path d="M178.097 128.935C177.854 128.935 177.657 128.726 177.657 128.468C177.657 107.218 168.044 86.9648 151.943 74.2905C151.748 74.1367 151.707 73.8443 151.851 73.6368C151.996 73.4299 152.272 73.3869 152.467 73.5396C160.379 79.767 166.937 87.9595 171.434 97.2311C176.148 106.95 178.538 117.46 178.538 128.467C178.538 128.726 178.341 128.935 178.097 128.935Z" fill="#3AAED5"/>
<path d="M148.395 71.6046C148.314 71.6046 148.233 71.5813 148.16 71.5318C146.858 70.6539 145.509 69.8157 144.149 69.0411C143.935 68.9192 143.854 68.636 143.969 68.4085C144.084 68.1814 144.351 68.0955 144.565 68.2179C145.943 69.0033 147.311 69.8531 148.631 70.7431C148.836 70.8814 148.897 71.1706 148.767 71.3879C148.683 71.528 148.541 71.6046 148.395 71.6046Z" fill="#3AAED5"/>
<path d="M141.54 67.5851C141.477 67.5851 141.413 67.5706 141.352 67.5398C132.822 63.2429 123.673 61.0643 114.159 61.0643C107.201 61.0643 100.362 62.251 93.8316 64.5917C93.5983 64.6744 93.351 64.5431 93.2735 64.2988C93.1956 64.0544 93.3197 63.789 93.5495 63.7068C100.171 61.3334 107.105 60.1299 114.159 60.1299C123.804 60.1299 133.08 62.3393 141.729 66.696C141.948 66.8067 142.042 67.0852 141.938 67.3183C141.863 67.4865 141.705 67.5851 141.54 67.5851Z" fill="#3AAED5"/>
<path d="M188.807 128.936C188.564 128.936 188.367 128.728 188.367 128.469C188.367 119.796 187.048 111.271 184.445 103.133C184.367 102.889 184.49 102.623 184.721 102.54C184.952 102.458 185.201 102.588 185.279 102.833C187.912 111.067 189.248 119.692 189.248 128.469C189.247 128.728 189.05 128.936 188.807 128.936Z" fill="#3AAED5"/>
<path d="M183.305 99.0218C183.132 99.0218 182.967 98.9125 182.898 98.7312C177.657 85.0954 168.924 73.3036 157.644 64.6309C157.447 64.4795 157.403 64.1875 157.545 63.9787C157.687 63.7693 157.962 63.7226 158.16 63.874C169.574 72.6495 178.409 84.581 183.712 98.3785C183.804 98.6177 183.696 98.8906 183.471 98.9877C183.417 99.0106 183.361 99.0218 183.305 99.0218Z" fill="#3AAED5"/>
<path d="M153.621 61.6622C153.541 61.6622 153.461 61.6393 153.388 61.5917C141.641 53.8108 128.075 49.6976 114.159 49.6976C107.887 49.6976 101.655 50.5297 95.6383 52.1705C95.4041 52.234 95.1629 52.0845 95.1022 51.8341C95.0414 51.5841 95.1836 51.3295 95.4191 51.265C101.508 49.6046 107.813 48.7627 114.159 48.7627C128.24 48.7627 141.967 52.9246 153.854 60.7979C154.061 60.9348 154.123 61.2231 153.995 61.4417C153.912 61.5842 153.768 61.6622 153.621 61.6622Z" fill="#3AAED5"/>
<path d="M81.3365 57.7483C81.1737 57.7483 81.017 57.652 80.9408 57.4866C80.8339 57.2549 80.9237 56.9751 81.142 56.8615C83.4369 55.6674 85.8136 54.5876 88.2067 53.6518C88.4342 53.5631 88.6878 53.6864 88.7718 53.9289C88.8555 54.1714 88.7393 54.4395 88.5108 54.5288C86.146 55.4534 83.7969 56.5205 81.5298 57.7006C81.4677 57.7329 81.4012 57.7483 81.3365 57.7483Z" fill="#3AAED5"/>
<path d="M39.5112 128.936C39.2678 128.936 39.071 128.727 39.071 128.468C39.071 114.315 42.6111 100.413 49.3079 88.2663C55.8079 76.4773 65.1098 66.5912 76.2089 59.6775C76.4188 59.5472 76.6882 59.6214 76.811 59.8438C76.9338 60.0667 76.8638 60.3526 76.6543 60.4834C54.0152 74.5865 39.9513 100.637 39.9513 128.469C39.9513 128.727 39.7541 128.936 39.5112 128.936Z" fill="#3AAED5"/>
</g>
<g opacity="0.22">
<path d="M31.6331 124.994C31.2687 124.994 30.9729 124.68 30.9729 124.293C30.9729 111.871 33.3545 99.8605 38.0517 88.5933C42.5896 77.7098 49.0548 68.0452 57.2683 59.8691C60.2256 56.9257 63.4105 54.1898 66.7344 51.7369C67.0341 51.516 67.4452 51.594 67.6534 51.9126C67.8616 52.2303 67.7877 52.6671 67.4884 52.8877C64.2164 55.3017 61.0821 57.9947 58.1719 60.8914C41.7256 77.2618 32.2933 100.371 32.2933 124.292C32.2933 124.68 31.9976 124.994 31.6331 124.994Z" fill="black"/>
<path d="M196.684 124.992C196.32 124.992 196.024 124.678 196.024 124.291C196.024 114.371 194.462 104.641 191.382 95.373C191.261 95.0081 191.441 94.6077 191.785 94.4787C192.128 94.3521 192.506 94.5413 192.627 94.9067C195.757 104.325 197.344 114.212 197.344 124.292C197.344 124.678 197.049 124.992 196.684 124.992Z" fill="black"/>
<path d="M190.222 90.9505C189.965 90.9505 189.72 90.7898 189.614 90.5221C183.179 74.3414 172.404 60.7434 158.452 51.1979C158.146 50.9881 158.057 50.5546 158.255 50.2294C158.453 49.9033 158.863 49.8108 159.168 50.0201C173.343 59.7188 184.291 73.5359 190.83 89.9778C190.971 90.3343 190.814 90.7454 190.478 90.8959C190.394 90.9328 190.308 90.9505 190.222 90.9505Z" fill="black"/>
<path d="M72.5273 49.3397C72.3006 49.3397 72.0797 49.2154 71.9569 48.9931C71.7729 48.659 71.8785 48.2296 72.1932 48.0344C84.8728 40.1559 99.3839 35.9912 114.159 35.9912C126.464 35.9912 138.311 38.7762 149.371 44.2696C149.701 44.4336 149.844 44.8508 149.689 45.2012C149.535 45.5521 149.143 45.703 148.812 45.539C137.928 40.1334 126.269 37.3928 114.159 37.3928C99.6185 37.3928 85.3381 41.4907 72.8605 49.2439C72.7557 49.3089 72.6409 49.3397 72.5273 49.3397Z" fill="black"/>
<path d="M16.9434 124.992C16.579 124.992 16.2832 124.678 16.2832 124.291C16.2832 83.0986 39.2379 45.7558 74.7635 29.156C75.0985 29.0005 75.4875 29.1612 75.6341 29.5153C75.7811 29.8695 75.6293 30.2834 75.2956 30.4395C40.2489 46.8155 17.6036 83.6546 17.6036 124.292C17.6036 124.678 17.3079 124.992 16.9434 124.992Z" fill="black"/>
<path d="M211.374 124.991C211.01 124.991 210.714 124.677 210.714 124.291C210.714 91.9778 196.097 61.181 171.613 41.9098C171.32 41.679 171.259 41.2403 171.476 40.9291C171.693 40.6179 172.107 40.553 172.4 40.7833C184.428 50.2508 194.399 62.7055 201.235 76.8016C208.401 91.5774 212.035 107.555 212.035 124.29C212.035 124.677 211.739 124.991 211.374 124.991Z" fill="black"/>
<path d="M166.214 37.8228C166.093 37.8228 165.97 37.7878 165.86 37.7135C163.877 36.3764 161.825 35.1023 159.762 33.9263C159.441 33.7432 159.319 33.3185 159.492 32.9775C159.665 32.6364 160.066 32.5093 160.386 32.6915C162.478 33.8834 164.558 35.1752 166.569 36.5305C166.877 36.738 166.967 37.1711 166.772 37.4977C166.646 37.7079 166.433 37.8228 166.214 37.8228Z" fill="black"/>
<path d="M155.791 31.7146C155.695 31.7146 155.599 31.6927 155.508 31.6469C142.538 25.113 128.626 21.8001 114.159 21.8001C103.579 21.8001 93.179 23.6049 83.249 27.164C82.9039 27.2878 82.5289 27.0907 82.4127 26.7244C82.2957 26.3576 82.4814 25.96 82.8269 25.8362C92.8934 22.228 103.435 20.3984 114.159 20.3984C128.823 20.3984 142.926 23.7567 156.074 30.3807C156.404 30.5466 156.544 30.9643 156.388 31.3142C156.275 31.5665 156.038 31.7146 155.791 31.7146Z" fill="black"/>
<path d="M227.657 124.991C227.293 124.991 226.997 124.677 226.997 124.29C226.997 111.099 224.991 98.1373 221.034 85.7653C220.917 85.3985 221.101 85.0005 221.447 84.8762C221.792 84.7519 222.167 84.9481 222.284 85.3144C226.288 97.8327 228.318 110.946 228.318 124.29C228.318 124.677 228.022 124.991 227.657 124.991Z" fill="black"/>
<path d="M219.293 79.5108C219.032 79.5108 218.786 79.3459 218.681 79.0744C210.712 58.3408 197.433 40.4109 180.281 27.2226C179.986 26.9956 179.92 26.5573 180.134 26.2438C180.347 25.9299 180.761 25.8607 181.056 26.0873C198.408 39.4293 211.841 57.569 219.904 78.5451C220.042 78.9034 219.88 79.3123 219.542 79.4585C219.46 79.4935 219.376 79.5108 219.293 79.5108Z" fill="black"/>
<path d="M174.159 22.7074C174.039 22.7074 173.918 22.6733 173.81 22.6009C155.947 10.7694 135.32 4.51587 114.159 4.51587C104.622 4.51587 95.1466 5.78106 85.997 8.27594C85.6435 8.37312 85.2839 8.14606 85.1933 7.77183C85.1026 7.39713 85.3152 7.01495 85.6686 6.91871C94.9252 4.3944 104.511 3.11426 114.159 3.11426C135.567 3.11426 156.436 9.44162 174.509 21.4123C174.818 21.617 174.912 22.0496 174.719 22.3776C174.594 22.5906 174.379 22.7074 174.159 22.7074Z" fill="black"/>
<path d="M64.2535 16.7552C64.0092 16.7552 63.7751 16.6108 63.6602 16.3627C63.4996 16.0151 63.6347 15.5951 63.9621 15.425C67.4481 13.6104 71.0616 11.9686 74.702 10.5451C75.0445 10.4119 75.4243 10.5974 75.5498 10.9604C75.6761 11.3234 75.5009 11.7266 75.1585 11.8603C71.5599 13.267 67.9886 14.8896 64.5431 16.6832C64.4507 16.7323 64.3512 16.7552 64.2535 16.7552Z" fill="black"/>
<path d="M0.660213 124.992C0.295775 124.992 0 124.678 0 124.291C0 102.773 5.38205 81.6385 15.5634 63.1712C25.4455 45.2479 39.5877 30.2179 56.4618 19.7067C56.7757 19.5114 57.181 19.6221 57.3654 19.9562C57.5499 20.2898 57.4447 20.7196 57.13 20.9154C22.7056 42.3601 1.32043 81.9716 1.32043 124.291C1.32043 124.678 1.02465 124.992 0.660213 124.992Z" fill="black"/>
</g>
<path d="M136.252 134.503C135.748 134.503 135.247 134.389 134.774 134.162C133.895 133.738 133.226 132.973 132.89 132.007C132.27 130.225 130.44 129.207 128.552 129.181C128.372 129.178 128.191 129.172 128.011 129.164C126.113 129.076 124.21 129.975 123.463 131.722C123.061 132.662 122.341 133.382 121.437 133.75C120.532 134.117 119.548 134.087 118.669 133.664C116.856 132.79 116.057 130.499 116.887 128.555C117.649 126.773 117.064 124.734 115.761 123.3C115.556 123.074 115.356 122.843 115.162 122.607C114.02 121.219 112.141 120.537 110.475 121.212C109.569 121.58 108.586 121.55 107.707 121.126C106.828 120.703 106.159 119.938 105.823 118.972C105.13 116.982 106.086 114.747 107.952 113.99C109.66 113.296 110.629 111.521 110.634 109.678C110.635 109.231 110.651 108.785 110.681 108.339C110.806 106.513 109.961 104.689 108.312 103.895C106.5 103.022 105.7 100.73 106.531 98.7859C106.933 97.845 107.653 97.125 108.557 96.7578C109.463 96.3906 110.446 96.42 111.326 96.8437C112.942 97.6221 114.858 97.0656 116.086 95.7573C116.307 95.5209 116.535 95.2907 116.768 95.0669C118.163 93.7264 118.881 91.7352 118.245 89.9081C117.552 87.9178 118.508 85.6832 120.374 84.9253C121.281 84.5572 122.264 84.588 123.142 85.0113C124.022 85.4341 124.691 86.1994 125.027 87.1656C125.648 88.9484 127.478 89.9651 129.365 89.9921C129.546 89.9947 129.726 90.0002 129.906 90.0085C131.804 90.0968 133.708 89.1985 134.454 87.4515C135.285 85.508 137.437 84.6361 139.249 85.5098C140.128 85.9326 140.797 86.6979 141.134 87.6636C141.469 88.6284 141.432 89.6773 141.031 90.6178C140.269 92.3993 140.853 94.4382 142.157 95.8721C142.362 96.0979 142.562 96.3291 142.756 96.5657C143.898 97.9535 145.777 98.6357 147.442 97.9599C148.349 97.5917 149.331 97.6221 150.211 98.0459C151.09 98.4692 151.759 99.2344 152.095 100.2C152.787 102.19 151.832 104.425 149.966 105.182C148.258 105.875 147.289 107.65 147.284 109.494C147.283 109.94 147.267 110.386 147.236 110.832C147.112 112.658 147.956 114.483 149.606 115.277C151.419 116.15 152.218 118.442 151.387 120.386C150.556 122.33 148.406 123.202 146.593 122.327C144.976 121.55 143.061 122.106 141.833 123.414C141.612 123.65 141.384 123.88 141.151 124.104C139.756 125.445 139.038 127.437 139.674 129.264C140.366 131.254 139.41 133.489 137.545 134.246C137.124 134.419 136.688 134.503 136.252 134.503ZM132.016 127.924C132.226 127.882 132.435 128.001 132.505 128.203L133.716 131.683C133.969 132.413 134.475 132.991 135.138 133.311C135.801 133.631 136.545 133.653 137.228 133.375C138.646 132.8 139.372 131.101 138.846 129.59L137.638 126.114C137.566 125.909 137.645 125.682 137.828 125.565C139.997 124.177 141.825 122.346 143.262 120.124C143.382 119.939 143.62 119.872 143.817 119.968L146.955 121.478C148.325 122.139 149.953 121.475 150.585 120.001C151.215 118.527 150.612 116.79 149.241 116.13L146.109 114.621C145.904 114.522 145.795 114.294 145.849 114.072C146.478 111.461 146.571 108.795 146.127 106.147C146.089 105.925 146.211 105.706 146.42 105.621L149.65 104.311C151.068 103.735 151.794 102.037 151.268 100.525C151.014 99.7946 150.509 99.2167 149.846 98.8976C149.183 98.5775 148.44 98.5565 147.755 98.8331L144.521 100.146C144.315 100.23 144.079 100.146 143.971 99.9521C142.692 97.6445 140.997 95.7052 138.933 94.1896C138.756 94.0596 138.692 93.8247 138.778 93.6227L140.227 90.2323C140.533 89.517 140.561 88.72 140.306 87.9879C140.053 87.2581 139.547 86.6797 138.884 86.3611C137.514 85.6995 135.885 86.3634 135.255 87.8379L133.804 91.2338C133.721 91.4286 133.507 91.5326 133.303 91.4779C130.868 90.8275 128.378 90.7505 125.9 91.249C125.69 91.291 125.481 91.1717 125.411 90.9696L124.2 87.4898C123.946 86.7596 123.441 86.1817 122.778 85.8626C122.115 85.5435 121.373 85.5206 120.688 85.7981C119.269 86.3737 118.544 88.072 119.07 89.5843L120.279 93.0594C120.35 93.2643 120.271 93.4914 120.089 93.6083C117.919 94.9969 116.09 96.8279 114.654 99.0499C114.535 99.2343 114.297 99.3012 114.099 99.206L110.961 97.695C110.297 97.375 109.556 97.3525 108.87 97.6305C108.184 97.9094 107.637 98.4565 107.332 99.1718C106.702 100.646 107.304 102.384 108.675 103.044L111.807 104.552C112.012 104.651 112.121 104.88 112.067 105.101C111.438 107.712 111.345 110.378 111.789 113.026C111.827 113.248 111.705 113.466 111.496 113.551L108.266 114.862C106.847 115.438 106.122 117.136 106.648 118.648C106.901 119.378 107.407 119.956 108.07 120.275C108.734 120.595 109.476 120.617 110.16 120.34L113.394 119.027C113.6 118.943 113.837 119.027 113.945 119.221C115.222 121.528 116.918 123.466 118.982 124.983C119.16 125.113 119.224 125.348 119.137 125.55L117.688 128.941C117.058 130.415 117.66 132.152 119.031 132.812C119.696 133.132 120.438 133.154 121.122 132.876C121.809 132.598 122.355 132.05 122.66 131.335L124.112 127.939C124.195 127.744 124.409 127.64 124.614 127.695C127.048 128.345 129.539 128.421 132.016 127.924ZM128.827 123.895C126.998 123.895 125.145 123.493 123.379 122.642C120.129 121.076 117.655 118.247 116.412 114.674C115.169 111.102 115.305 107.215 116.795 103.729C118.285 100.243 120.95 97.5745 124.301 96.2149C127.652 94.8544 131.288 94.9679 134.538 96.5317C141.244 99.7614 144.197 108.245 141.121 115.444C138.855 120.746 133.939 123.895 128.827 123.895ZM129.075 96.206C127.573 96.206 126.066 96.4994 124.615 97.0881C121.483 98.3598 118.99 100.856 117.597 104.116C116.203 107.377 116.076 111.012 117.238 114.35C118.399 117.688 120.709 120.33 123.743 121.791C130.008 124.809 137.444 121.787 140.319 115.059C143.195 108.33 140.439 100.4 134.174 97.3838C132.546 96.5994 130.814 96.206 129.075 96.206Z" fill="black"/>
<path d="M92.7889 127.652C92.126 127.652 91.5032 127.383 91.0309 126.892C90.549 126.391 90.2823 125.719 90.2792 125C90.274 123.814 89.4251 122.821 88.3236 122.38C88.1727 122.32 88.023 122.256 87.8746 122.19C86.8274 121.718 85.5581 121.842 84.7796 122.686C84.3038 123.201 83.67 123.492 82.9939 123.503C82.2959 123.527 81.677 123.244 81.1951 122.743C80.7131 122.242 80.446 121.57 80.4429 120.85C80.4398 120.133 80.6999 119.454 81.1748 118.939C81.9743 118.072 82.0687 116.787 81.6044 115.704C81.5 115.46 81.4029 115.213 81.3132 114.962C80.9386 113.916 79.9933 113.131 78.8821 113.15C78.2153 113.147 77.5652 112.891 77.0828 112.39C76.6009 111.889 76.3342 111.216 76.3311 110.497C76.3249 109.017 77.4543 107.793 78.8487 107.768C79.9707 107.749 80.9042 106.938 81.2693 105.877C81.3635 105.603 81.4664 105.333 81.5779 105.066C82.0254 103.997 81.9085 102.734 81.1049 101.899C80.6229 101.397 80.3557 100.725 80.3527 100.005C80.3496 99.2875 80.6097 98.6087 81.085 98.0934C81.56 97.578 82.1942 97.2884 82.8703 97.2767C83.5652 97.2739 84.1872 97.5355 84.6691 98.0364C85.4517 98.8502 86.7032 98.9438 87.7164 98.4457C87.8843 98.3631 88.0538 98.2847 88.225 98.2104C89.3233 97.7338 90.1567 96.7177 90.1515 95.5205C90.1454 94.0394 91.2748 92.8158 92.6696 92.792C93.3536 92.7915 93.986 93.0508 94.468 93.5517C94.9504 94.0525 95.2171 94.7253 95.2202 95.4448C95.2256 96.6308 96.0744 97.6235 97.1757 98.0638C97.7863 98.308 98.3769 98.6051 98.9448 98.9541C99.1905 99.105 99.5107 99.0689 99.7062 98.8569L100.72 97.7581C100.72 97.758 100.72 97.7581 100.72 97.7581C100.72 97.7582 100.72 97.7583 100.72 97.7582C101.195 97.2425 101.829 96.9524 102.505 96.9412C103.185 96.9183 103.822 97.1991 104.305 97.7004C105.298 98.7339 105.306 100.44 104.325 101.505C103.525 102.372 103.431 103.657 103.895 104.74C104 104.984 104.097 105.231 104.186 105.482C104.561 106.528 105.506 107.313 106.617 107.294C107.307 107.301 107.935 107.553 108.416 108.054C108.898 108.555 109.165 109.228 109.168 109.947C109.175 111.428 108.045 112.652 106.65 112.676C105.529 112.695 104.596 113.506 104.231 114.567C104.136 114.841 104.033 115.112 103.921 115.379C103.474 116.448 103.591 117.71 104.395 118.545C105.388 119.579 105.397 121.286 104.414 122.351C103.939 122.866 103.305 123.156 102.629 123.167C101.955 123.186 101.313 122.909 100.83 122.408C100.048 121.594 98.7962 121.5 97.7831 121.998C97.6152 122.081 97.4456 122.159 97.2744 122.234C96.1762 122.71 95.3429 123.726 95.3483 124.924C95.3544 126.405 94.225 127.628 92.8302 127.652C92.8166 127.652 92.8029 127.652 92.7889 127.652ZM85.761 120.287C85.9061 120.13 86.1456 120.106 86.3192 120.23C87.6656 121.199 89.1665 121.833 90.7801 122.112C90.9927 122.149 91.1482 122.333 91.1491 122.549L91.1595 124.995C91.1617 125.464 91.3346 125.9 91.6471 126.225C91.953 126.544 92.358 126.719 92.7889 126.719C92.7981 126.719 92.8073 126.718 92.8166 126.718C93.7312 126.703 94.4724 125.9 94.468 124.929L94.4573 122.483C94.4563 122.27 94.6049 122.087 94.8126 122.044C96.424 121.709 97.9205 121.024 99.2603 120.009C99.4315 119.879 99.6727 119.898 99.8216 120.052L101.446 121.741C101.759 122.066 102.171 122.251 102.615 122.234C103.057 122.226 103.473 122.036 103.785 121.698C104.428 121.001 104.425 119.887 103.778 119.214L102.159 117.532C102.003 117.369 101.979 117.121 102.101 116.931C103.029 115.489 103.644 113.886 103.926 112.169C103.963 111.949 104.151 111.786 104.375 111.782L106.637 111.743C107.552 111.728 108.292 110.925 108.288 109.954C108.286 109.486 108.113 109.048 107.8 108.723C107.494 108.405 107.09 108.23 106.659 108.23C106.649 108.23 106.641 108.231 106.631 108.231L104.37 108.27C104.143 108.274 103.947 108.112 103.908 107.888C103.612 106.182 102.984 104.602 102.044 103.192C101.919 103.005 101.938 102.757 102.091 102.592L103.695 100.854C104.338 100.157 104.335 99.0427 103.688 98.3709C103.376 98.0452 102.967 97.8481 102.52 97.878C102.077 97.8855 101.661 98.076 101.349 98.4137C101.349 98.4138 101.349 98.4139 101.349 98.4141C101.349 98.4143 101.349 98.4144 101.349 98.4145L99.7388 100.159C99.5937 100.316 99.3542 100.34 99.1806 100.215C97.8342 99.2469 96.3333 98.6134 94.7202 98.334C94.5075 98.2969 94.352 98.1128 94.3511 97.8969L94.3404 95.4508C94.3382 94.9827 94.1652 94.5454 93.8527 94.2202C93.5468 93.9021 93.1423 93.7273 92.7114 93.7273C92.7022 93.7273 92.6929 93.7278 92.6837 93.7278C91.769 93.7432 91.0279 94.5464 91.0323 95.5172L91.0426 97.9633C91.0435 98.1755 90.8949 98.359 90.6872 98.4022C89.0758 98.7372 87.5793 99.4221 86.2395 100.438C86.0684 100.568 85.8272 100.549 85.6783 100.394L84.0534 98.7045C83.7409 98.3798 83.328 98.2027 82.8852 98.212C82.4424 98.22 82.027 98.4101 81.7149 98.7479C81.4024 99.0866 81.2316 99.5314 81.2338 100.002C81.2356 100.47 81.409 100.906 81.7215 101.232L83.3408 102.915C83.4971 103.078 83.5211 103.326 83.3989 103.516C82.4702 104.958 81.8557 106.561 81.5736 108.277C81.5371 108.498 81.3485 108.661 81.1253 108.664L78.8628 108.703C77.9482 108.719 77.207 109.522 77.2114 110.493C77.2136 110.961 77.3865 111.397 77.699 111.723C78.0111 112.048 78.4218 112.214 78.8681 112.216L81.1285 112.177C81.3556 112.173 81.5517 112.335 81.5908 112.559C81.8879 114.265 82.5155 115.845 83.4552 117.254C83.5797 117.441 83.5601 117.689 83.4078 117.854L81.8034 119.593C81.4909 119.931 81.3201 120.376 81.3223 120.846C81.324 121.314 81.4975 121.751 81.81 122.076C82.1225 122.402 82.53 122.585 82.9785 122.569C83.4213 122.561 83.8368 122.371 84.1493 122.033L85.761 120.287ZM92.648 119.748C90.3056 119.748 88.1053 118.798 86.4363 117.064C82.9213 113.408 82.8936 107.366 86.3742 103.593C88.06 101.767 90.3078 100.739 92.7035 100.698C95.1163 100.649 97.3597 101.61 99.0631 103.381C100.766 105.152 101.711 107.53 101.722 110.074C101.733 112.618 100.811 115.024 99.1247 116.851C97.4394 118.678 95.1916 119.706 92.7959 119.747C92.747 119.748 92.6977 119.748 92.648 119.748ZM92.8509 101.631C92.8065 101.631 92.7624 101.631 92.7175 101.632C90.5551 101.669 88.5252 102.598 87.0032 104.248C83.8615 107.652 83.8835 113.101 87.0521 116.396C88.5859 117.992 90.6176 118.837 92.7818 118.813C94.9437 118.777 96.9727 117.848 98.4956 116.197C98.4957 116.197 98.4958 116.197 98.496 116.197C98.4961 116.197 98.4962 116.197 98.4963 116.197C100.019 114.548 100.852 112.374 100.842 110.079C100.832 107.786 99.9812 105.644 98.4469 104.049C96.9447 102.486 94.9618 101.631 92.8509 101.631Z" fill="black"/>
<path d="M100.333 165.826C99.9765 165.826 99.6156 165.761 99.263 165.624C98.4826 165.32 97.8629 164.714 97.5192 163.916C97.175 163.117 97.1477 162.222 97.4422 161.396C97.9707 159.916 97.3857 158.294 96.2403 157.218C96.0573 157.046 95.8783 156.869 95.7034 156.688C94.6683 155.615 93.0753 155.163 91.734 155.814C90.1679 156.575 88.3154 155.854 87.6063 154.207C87.2621 153.409 87.2348 152.514 87.5297 151.689C87.8237 150.865 88.403 150.209 89.1609 149.842C90.5293 149.177 91.2308 147.663 91.1387 146.145C91.1173 145.792 91.107 145.439 91.1077 145.085C91.111 143.588 90.3125 142.149 88.9175 141.607C88.1371 141.304 87.5174 140.697 87.1736 139.899C86.8295 139.1 86.8022 138.206 87.0966 137.38C87.7036 135.681 89.5046 134.807 91.112 135.431C92.494 135.968 94.0378 135.404 94.9841 134.262C95.1719 134.036 95.3655 133.815 95.5649 133.6C96.6276 132.453 97.0928 130.806 96.4743 129.37C96.1301 128.571 96.1028 127.677 96.3973 126.851C96.6913 126.028 97.2705 125.372 98.0289 125.004C99.5944 124.243 101.447 124.964 102.157 126.611C102.763 128.019 104.302 128.742 105.832 128.645C106.022 128.633 106.212 128.625 106.401 128.62C107.959 128.582 109.46 127.739 109.984 126.272C110.59 124.572 112.392 123.701 113.999 124.323C114.779 124.626 115.399 125.233 115.743 126.032C116.087 126.831 116.114 127.724 115.82 128.55C115.291 130.03 115.876 131.652 117.021 132.729C117.204 132.901 117.383 133.078 117.558 133.259C118.594 134.332 120.186 134.783 121.528 134.132C122.286 133.764 123.132 133.728 123.911 134.031C124.692 134.334 125.311 134.941 125.655 135.739C125.999 136.538 126.027 137.433 125.732 138.258C125.438 139.081 124.859 139.737 124.101 140.105C122.732 140.769 122.031 142.283 122.123 143.801C122.144 144.154 122.155 144.508 122.154 144.861C122.151 146.358 122.949 147.798 124.344 148.339C125.125 148.643 125.745 149.25 126.088 150.049C126.432 150.848 126.459 151.742 126.164 152.567C125.558 154.266 123.758 155.138 122.15 154.516C120.768 153.979 119.224 154.543 118.278 155.684C118.09 155.91 117.896 156.131 117.697 156.346C116.634 157.493 116.169 159.141 116.788 160.577C117.132 161.375 117.159 162.27 116.864 163.095C116.57 163.919 115.991 164.575 115.233 164.943C114.474 165.311 113.628 165.346 112.849 165.044C112.069 164.74 111.449 164.134 111.105 163.335C110.499 161.927 108.96 161.205 107.43 161.302C107.24 161.314 107.05 161.322 106.86 161.327C105.303 161.364 103.802 162.208 103.278 163.675C102.804 165.002 101.602 165.826 100.333 165.826ZM94.0199 153.678C94.2171 153.582 94.4546 153.648 94.5746 153.831C95.7696 155.653 97.2951 157.146 99.1081 158.271C99.2953 158.387 99.3761 158.618 99.302 158.826L98.2661 161.729C98.0553 162.319 98.0746 162.958 98.3202 163.528C98.5658 164.097 99.0082 164.53 99.5658 164.747C100.722 165.197 102.019 164.566 102.456 163.345L103.493 160.438C103.564 160.24 103.768 160.123 103.974 160.162C106.052 160.548 108.144 160.459 110.192 159.897C110.397 159.84 110.612 159.943 110.696 160.138L111.906 162.948C112.151 163.518 112.594 163.951 113.152 164.167C113.711 164.385 114.32 164.359 114.866 164.094C115.412 163.829 115.83 163.357 116.041 162.765C116.252 162.175 116.233 161.536 115.987 160.967L114.779 158.163C114.692 157.96 114.756 157.725 114.934 157.594C116.674 156.319 118.106 154.698 119.191 152.776C119.298 152.586 119.529 152.503 119.733 152.582L122.452 153.639C123.608 154.089 124.905 153.459 125.341 152.237C125.552 151.647 125.533 151.008 125.288 150.438C125.042 149.868 124.6 149.435 124.041 149.218L121.327 148.164C121.113 148.081 120.987 147.858 121.027 147.632C121.411 145.441 121.345 143.239 120.83 141.088C120.777 140.867 120.884 140.639 121.089 140.54L123.734 139.256C124.281 138.991 124.698 138.519 124.909 137.927C125.12 137.337 125.1 136.699 124.855 136.129C124.61 135.559 124.167 135.125 123.609 134.909C123.05 134.691 122.441 134.717 121.894 134.982L119.242 136.269C119.045 136.365 118.808 136.299 118.688 136.116C117.493 134.295 115.967 132.801 114.154 131.676C113.966 131.56 113.886 131.328 113.96 131.12L114.996 128.218C115.207 127.628 115.188 126.99 114.943 126.42C114.697 125.85 114.255 125.416 113.696 125.2C112.54 124.75 111.243 125.38 110.807 126.603L109.769 129.509C109.698 129.707 109.495 129.824 109.288 129.785C107.21 129.398 105.118 129.488 103.071 130.05C102.866 130.106 102.651 130.003 102.567 129.808L101.357 126.999C100.85 125.822 99.5214 125.306 98.3959 125.853C97.8497 126.118 97.4325 126.59 97.2212 127.182C97.0104 127.772 97.0297 128.411 97.2753 128.981L98.483 131.784C98.5701 131.986 98.5061 132.222 98.3286 132.353C96.5878 133.628 95.1556 135.249 94.0715 137.171C93.9642 137.361 93.7332 137.444 93.5295 137.365L90.8101 136.308C89.6534 135.859 88.3567 136.487 87.921 137.711C87.7102 138.301 87.7291 138.94 87.9751 139.51C88.2207 140.079 88.6631 140.512 89.2207 140.729L91.9353 141.783C92.1491 141.866 92.2747 142.089 92.2353 142.315C91.8502 144.506 91.9166 146.707 92.4325 148.859C92.4854 149.079 92.3776 149.307 92.1734 149.406L89.5275 150.69C88.9817 150.955 88.5645 151.427 88.3532 152.019C88.1424 152.609 88.1613 153.248 88.4069 153.817C88.9144 154.996 90.2432 155.509 91.3678 154.964L94.0199 153.678ZM106.554 156.939C102.262 156.939 98.1675 154.363 96.2863 149.995C93.7067 144.007 96.2489 136.882 101.953 134.113C107.659 131.344 114.398 133.965 116.977 139.953C118.227 142.855 118.325 146.106 117.254 149.107C116.183 152.105 114.073 154.494 111.31 155.835C109.766 156.584 108.146 156.939 106.554 156.939ZM106.71 133.943C105.24 133.943 103.745 134.27 102.319 134.962C97.0557 137.517 94.7084 144.086 97.0861 149.607C99.4642 155.127 105.681 157.539 110.943 154.985C113.494 153.748 115.442 151.542 116.43 148.775C117.418 146.01 117.327 143.015 116.176 140.342C114.443 136.316 110.668 133.943 106.71 133.943Z" fill="black"/>
<path d="M67.0901 45.3445L54.2225 42.1021C53.6116 41.9479 53.234 41.2976 53.3792 40.6495L55.8062 29.7973C55.951 29.1488 56.5637 28.748 57.1746 28.9021L70.0421 32.1445C70.653 32.2983 71.0307 32.9486 70.8854 33.5971L68.4585 44.4493C68.3137 45.0973 67.701 45.4982 67.0901 45.3445Z" fill="#FFB44F"/>
<path d="M67.3521 46.0771C67.2153 46.0771 67.0767 46.0603 66.9382 46.0253C66.938 46.0252 66.9379 46.0252 66.9377 46.0252C66.9376 46.0252 66.9374 46.0252 66.9373 46.0252L54.07 42.7828C53.1065 42.5399 52.5079 41.5101 52.7368 40.4865L55.1641 29.6338C55.393 28.6111 56.3653 27.9761 57.327 28.2186L70.195 31.461C71.1585 31.704 71.7566 32.7342 71.5282 33.7573L69.1004 44.6096C68.9049 45.4856 68.1659 46.0771 67.3521 46.0771ZM67.2421 44.6614C67.5004 44.7259 67.7553 44.5573 67.8156 44.2863L70.2434 33.434C70.3041 33.1626 70.1453 32.8893 69.8895 32.8253L57.022 29.5829C56.7671 29.5165 56.5088 29.687 56.448 29.9585L54.0211 40.8103C53.9604 41.0817 54.1193 41.3546 54.3745 41.419L67.2421 44.6614Z" fill="#233863"/>
<path d="M61.086 39.6873C61.0116 39.6873 60.9363 39.6784 60.862 39.6616C60.5891 39.5985 60.3562 39.4261 60.2057 39.1762L58.5882 36.4785C58.3928 36.152 58.4834 35.7189 58.7907 35.511C59.0974 35.304 59.5059 35.3993 59.7022 35.7259C60.497 37.0518 62.2446 37.434 63.5204 36.561L66.6296 34.4336C66.9346 34.2234 67.3439 34.3168 67.542 34.6429C67.7396 34.9681 67.6511 35.4016 67.3448 35.6114L61.6476 39.5102C61.4782 39.6271 61.2836 39.6873 61.086 39.6873Z" fill="white"/>
<path d="M177.987 46.368L164.843 47.9187C164.219 47.9925 163.657 47.515 163.587 46.853L162.427 35.7676C162.357 35.1056 162.807 34.509 163.431 34.4351L176.575 32.8845C177.199 32.8107 177.761 33.2881 177.83 33.9502L178.991 45.0355C179.061 45.698 178.611 46.2947 177.987 46.368Z" fill="#3AAED5"/>
<path d="M164.714 48.6263C164.308 48.6263 163.917 48.481 163.595 48.2082C163.22 47.89 162.984 47.4359 162.931 46.9294L161.771 35.8436C161.662 34.798 162.374 33.8533 163.359 33.7374L176.502 32.1868C177.49 32.0695 178.377 32.8268 178.487 33.8711L179.648 44.9574C179.757 46.003 179.045 46.9477 178.06 47.0635L164.917 48.6142C164.848 48.6221 164.781 48.6263 164.714 48.6263ZM176.701 33.5767C176.684 33.5767 176.666 33.5776 176.648 33.58L163.505 35.1306C163.243 35.1615 163.055 35.4119 163.084 35.689L164.244 46.7748C164.258 46.9089 164.321 47.0294 164.42 47.114C164.52 47.1985 164.645 47.2359 164.77 47.2214L177.914 45.6708C178.175 45.6399 178.364 45.3895 178.335 45.1125L177.174 34.0271C177.148 33.7683 176.941 33.5767 176.701 33.5767Z" fill="#233863"/>
<path d="M170.183 43.2543C169.953 43.2543 169.731 43.1739 169.547 43.0221L167.168 41.0621C166.88 40.8248 166.828 40.3842 167.051 40.0787C167.274 39.7731 167.69 39.7175 167.978 39.9549C169.146 40.9179 170.885 40.6945 171.772 39.4674L174.09 36.2607C174.312 35.9537 174.726 35.8953 175.015 36.1313C175.304 36.3667 175.359 36.8068 175.137 37.1138L171.011 42.8226C170.841 43.0576 170.595 43.208 170.318 43.2459C170.273 43.251 170.228 43.2543 170.183 43.2543Z" fill="white"/>
<path d="M19.8033 60.3239C21.7876 60.3239 23.3962 58.6164 23.3962 56.5101C23.3962 54.4038 21.7876 52.6963 19.8033 52.6963C17.819 52.6963 16.2104 54.4038 16.2104 56.5101C16.2104 58.6164 17.819 60.3239 19.8033 60.3239Z" fill="#3AAED5"/>
<path d="M113.953 7.62759C115.938 7.62759 117.546 5.9201 117.546 3.8138C117.546 1.70749 115.938 0 113.953 0C111.969 0 110.361 1.70749 110.361 3.8138C110.361 5.9201 111.969 7.62759 113.953 7.62759Z" fill="#3AAED5"/>
<path d="M42.7808 55.6519C42.7808 56.4518 42.1699 57.1007 41.4159 57.1007C40.6619 57.1007 40.051 56.4522 40.051 55.6519C40.051 54.8521 40.6619 54.2031 41.4159 54.2031C42.1699 54.2031 42.7808 54.8516 42.7808 55.6519Z" fill="#3D85FD"/>
<path d="M199.904 42.9566C199.904 43.7565 199.293 44.4054 198.539 44.4054C197.785 44.4054 197.174 43.7569 197.174 42.9566C197.174 42.1568 197.785 41.5078 198.539 41.5078C199.293 41.5078 199.904 42.1563 199.904 42.9566Z" fill="#3D85FD"/>
<path d="M68.8436 15.6476C69.5974 15.6476 70.2085 14.999 70.2085 14.1988C70.2085 13.3987 69.5974 12.75 68.8436 12.75C68.0898 12.75 67.4788 13.3987 67.4788 14.1988C67.4788 14.999 68.0898 15.6476 68.8436 15.6476Z" fill="#3D85FD"/>
<path d="M23.9135 84.1154C24.6673 84.1154 25.2783 83.4667 25.2783 82.6666C25.2783 81.8664 24.6673 81.2178 23.9135 81.2178C23.1597 81.2178 22.5486 81.8664 22.5486 82.6666C22.5486 83.4667 23.1597 84.1154 23.9135 84.1154Z" fill="#FFB44F"/>
<path d="M207.269 96.589C208.023 96.589 208.634 95.9404 208.634 95.1402C208.634 94.3401 208.023 93.6914 207.269 93.6914C206.516 93.6914 205.905 94.3401 205.905 95.1402C205.905 95.9404 206.516 96.589 207.269 96.589Z" fill="#FFB44F"/>
<path d="M230 113.129C230 114.603 228.875 115.797 227.486 115.797C226.098 115.797 224.973 114.603 224.973 113.129C224.973 111.656 226.098 110.461 227.486 110.461C228.875 110.461 230 111.656 230 113.129Z" fill="#FFB44F"/>
<path d="M150.465 27.0373C150.465 28.78 149.134 30.1928 147.493 30.1928C145.851 30.1928 144.52 28.78 144.52 27.0373C144.52 25.2947 145.851 23.8818 147.493 23.8818C149.134 23.8823 150.465 25.2947 150.465 27.0373Z" fill="#FFB44F"/>
<path d="M74.9355 160.047L27.8016 160.153C24.1846 160.16 21.2184 157.026 21.211 153.186L21.1463 120.607C21.1388 116.767 24.0921 113.619 27.7092 113.611L74.8431 113.506C78.4602 113.498 81.4263 116.633 81.4338 120.472L81.4985 153.051C81.5064 156.891 78.5526 160.039 74.9355 160.047Z" fill="#3D85FD"/>
<path d="M27.7877 160.854C23.804 160.855 20.5593 157.419 20.5509 153.189L20.4871 120.609C20.4783 116.374 23.7182 112.92 27.7089 112.911L74.8428 112.806C74.8477 112.806 74.8525 112.806 74.8574 112.806C78.842 112.806 82.0867 116.241 82.0946 120.472L82.1589 153.051C82.1633 155.095 81.4124 157.023 80.0444 158.481C78.6765 159.939 76.8626 160.744 74.937 160.748L27.8186 160.853C27.8083 160.853 27.798 160.854 27.7877 160.854ZM74.8569 114.208C74.8529 114.208 74.849 114.208 74.845 114.208L27.7111 114.313C24.4488 114.32 21.8 117.144 21.8071 120.607L21.8709 153.186C21.8779 156.644 24.5311 159.453 27.7873 159.453C27.7917 159.453 27.7961 159.453 27.8 159.453L74.9339 159.348C76.507 159.344 77.9894 158.686 79.1082 157.493C80.2271 156.301 80.8415 154.724 80.838 153.054L80.7737 120.475C80.7676 117.017 78.1144 114.208 74.8569 114.208Z" fill="#233863"/>
<path opacity="0.24" d="M74.9355 160.047L27.8016 160.153C24.1846 160.16 21.2184 157.026 21.211 153.186L21.1463 120.607C21.1388 116.767 24.0921 113.619 27.7092 113.611L74.8431 113.506C78.4602 113.498 81.4263 116.633 81.4338 120.472L81.4985 153.051C81.5064 156.891 78.5526 160.039 74.9355 160.047Z" fill="#233863"/>
<path d="M72.2851 152.78L51.5297 131.658C51.3057 131.43 51.2982 131.052 51.513 130.815L78.4536 100.986C78.6684 100.749 79.0245 100.741 79.2485 100.969L100.004 122.091C100.228 122.319 100.235 122.697 100.021 122.934L73.0799 152.763C72.8652 153 72.5091 153.008 72.2851 152.78Z" fill="white"/>
<path d="M72.6733 153.646C72.3569 153.646 72.0577 153.519 71.8284 153.286C71.8283 153.286 71.828 153.285 71.8278 153.285C71.8277 153.285 71.8277 153.285 71.8276 153.285L51.0729 132.164C50.8374 131.923 50.7032 131.601 50.6966 131.254C50.6895 130.908 50.8106 130.579 51.0368 130.329L77.977 100.501C78.4444 99.9835 79.2186 99.9671 79.7059 100.462L100.461 121.584C100.947 122.08 100.964 122.903 100.497 123.419L73.5567 153.247C73.3304 153.497 73.0263 153.64 72.6997 153.646C72.6909 153.646 72.6825 153.646 72.6733 153.646ZM72.742 152.273C72.7415 152.273 72.7415 152.273 72.742 152.273V152.273ZM57.7408 124.931C54.5487 128.465 54.6625 133.875 58.0004 137.272L65.9756 145.388C69.6071 149.083 75.6012 148.957 79.0741 145.112L93.7924 128.816C96.9845 125.282 96.8708 119.873 93.5328 116.476L85.5576 108.36C81.9261 104.664 75.932 104.79 72.4591 108.635L57.7408 124.931Z" fill="#233863"/>
<path d="M93.8761 122.769C93.7665 122.769 93.6569 122.726 93.5715 122.639L85.7577 114.687C85.5825 114.508 85.5764 114.213 85.7449 114.026C85.9135 113.841 86.1917 113.834 86.3673 114.013L94.1811 121.965C94.3563 122.143 94.3625 122.439 94.1939 122.626C94.1076 122.721 93.9919 122.769 93.8761 122.769Z" fill="#FFB44F"/>
<path d="M89.9487 128.245C89.8391 128.245 89.7295 128.201 89.6441 128.115L74.016 112.21C73.8408 112.032 73.8347 111.736 74.0032 111.55C74.1718 111.364 74.4504 111.358 74.6256 111.536L90.2537 127.441C90.4289 127.619 90.435 127.915 90.2665 128.101C90.1802 128.196 90.0645 128.245 89.9487 128.245Z" fill="#233863"/>
<path d="M84.8547 133.882C84.7451 133.882 84.6355 133.839 84.5501 133.753L68.922 117.848C68.7468 117.669 68.7407 117.374 68.9092 117.187C69.0774 117.002 69.356 116.995 69.5316 117.174L85.1597 133.078C85.3349 133.257 85.3411 133.553 85.1725 133.739C85.0862 133.834 84.9705 133.882 84.8547 133.882Z" fill="#233863"/>
<path d="M80.0607 139.189C79.9511 139.189 79.8415 139.146 79.7561 139.059L64.1276 123.155C63.9524 122.976 63.9462 122.68 64.1148 122.494C64.2829 122.308 64.5615 122.302 64.7372 122.48L80.3657 138.385C80.5409 138.563 80.5471 138.859 80.3785 139.046C80.2918 139.141 80.176 139.189 80.0607 139.189Z" fill="#233863"/>
<path d="M74.9657 144.831C74.8561 144.831 74.7465 144.788 74.6612 144.702L59.0326 128.797C58.8574 128.619 58.8513 128.323 59.0198 128.136C59.188 127.951 59.4666 127.945 59.6422 128.123L75.2708 144.027C75.4459 144.206 75.4521 144.502 75.2835 144.688C75.1972 144.783 75.0815 144.831 74.9657 144.831Z" fill="#233863"/>
<path d="M60.3342 125.851L33.7166 137.393C33.4292 137.518 33.1009 137.371 32.9838 137.066L18.2619 98.813C18.1444 98.5079 18.2822 98.1594 18.5696 98.0351L45.1872 86.4928C45.4746 86.368 45.8029 86.5143 45.92 86.8194L60.6419 125.073C60.7594 125.378 60.6216 125.726 60.3342 125.851Z" fill="white"/>
<path d="M33.5046 138.139C33.3444 138.139 33.1837 138.105 33.0315 138.036C32.73 137.902 32.4962 137.652 32.373 137.331L17.6511 99.0775C17.5275 98.7575 17.5292 98.4042 17.6555 98.0842C17.7819 97.7646 18.0182 97.5161 18.321 97.3853L44.9382 85.843C45.564 85.5734 46.2771 85.8916 46.5319 86.5536L61.2542 124.807C61.5086 125.469 61.2086 126.227 60.5853 126.498C60.585 126.499 60.5847 126.499 60.5844 126.499C60.5843 126.499 60.5843 126.499 60.5842 126.499L33.9668 138.041C33.8175 138.106 33.6613 138.139 33.5046 138.139ZM26.8294 95.2099C22.4033 97.1292 20.2778 102.197 22.0106 106.699L30.1878 127.947C32.026 132.723 37.4722 135.008 42.1678 132.971L52.0754 128.675C56.5015 126.756 58.627 121.688 56.8942 117.185L48.7168 95.938C46.8785 91.1615 41.4323 88.8774 36.7367 90.9136L26.8294 95.2099Z" fill="#233863"/>
<path d="M41.416 101.008C41.243 101.008 41.078 100.899 41.0084 100.717C40.9164 100.479 41.0243 100.206 41.2496 100.108L45.8267 98.1229C46.0494 98.0248 46.3082 98.1398 46.4006 98.379C46.4926 98.6177 46.3848 98.8906 46.1594 98.9882L41.5824 100.973C41.5282 100.997 41.4715 101.008 41.416 101.008Z" fill="#233863"/>
<path d="M28.7346 114.948C28.5612 114.948 28.3966 114.839 28.327 114.657C28.235 114.419 28.3429 114.146 28.5682 114.048L48.6101 105.357C48.8332 105.258 49.092 105.373 49.184 105.613C49.276 105.851 49.1682 106.124 48.9428 106.222L28.901 114.913C28.8468 114.937 28.7901 114.948 28.7346 114.948Z" fill="#233863"/>
<path d="M42.7048 114.633C42.5314 114.633 42.3668 114.524 42.2972 114.343C42.2053 114.104 42.3131 113.831 42.5384 113.733L50.505 110.279C50.7295 110.181 50.987 110.296 51.079 110.535C51.1709 110.774 51.0631 111.047 50.8378 111.145L42.8712 114.599C42.8166 114.623 42.7603 114.633 42.7048 114.633Z" fill="#FFB44F"/>
<path d="M30.6289 119.869C30.4559 119.869 30.2913 119.759 30.2213 119.578C30.1293 119.339 30.2372 119.067 30.4625 118.969L35.3388 116.854C35.562 116.756 35.8208 116.871 35.9128 117.11C36.0048 117.349 35.897 117.622 35.6716 117.72L30.7953 119.834C30.7411 119.858 30.6844 119.869 30.6289 119.869Z" fill="#FFB44F"/>
<path d="M32.2016 125.606C32.0282 125.606 31.8636 125.496 31.7941 125.315C31.7021 125.076 31.8099 124.803 32.0353 124.706L44.3799 119.353C44.6031 119.254 44.8619 119.369 44.9539 119.609C45.0459 119.847 44.938 120.12 44.7127 120.218L32.368 125.571C32.3139 125.595 32.2571 125.606 32.2016 125.606Z" fill="#233863"/>
<path d="M39.1681 104.553L28.5251 109.448C28.0779 109.653 27.5585 109.435 27.3649 108.961L22.4181 96.8415C22.2244 96.3669 22.43 95.8155 22.8767 95.61L33.5198 90.7151C33.967 90.5095 34.4864 90.7277 34.68 91.2019L39.6268 103.321C39.8209 103.796 39.6153 104.347 39.1681 104.553Z" fill="#FFB44F"/>
<path d="M28.1745 109.993C28.0099 109.993 27.8453 109.96 27.6881 109.894C27.3594 109.756 27.1014 109.491 26.961 109.146L22.0143 97.0272C21.8743 96.6833 21.8682 96.3016 21.998 95.9531C22.1278 95.6041 22.3778 95.3303 22.7022 95.1812L33.3453 90.2863C34.0143 89.9794 34.7947 90.3055 35.0843 91.0166L40.031 103.136C40.171 103.48 40.1772 103.861 40.0473 104.21C39.9175 104.558 39.6676 104.833 39.3433 104.981C39.3432 104.981 39.3431 104.982 39.3431 104.982C39.3431 104.982 39.343 104.982 39.3429 104.982L28.7 109.877C28.531 109.954 28.3528 109.993 28.1745 109.993ZM33.8695 91.1058C33.811 91.1058 33.7511 91.118 33.6943 91.1441L23.0512 96.0395C22.943 96.089 22.8593 96.1806 22.8162 96.2974C22.7726 96.4137 22.7744 96.5413 22.8215 96.6567L27.7687 108.776C27.8153 108.891 27.9016 108.979 28.0116 109.025C28.1208 109.072 28.241 109.069 28.3501 109.02L38.9932 104.124C39.1015 104.075 39.1846 103.983 39.2282 103.867C39.2718 103.75 39.27 103.623 39.2229 103.508L34.2762 91.3885C34.2036 91.2114 34.0407 91.1058 33.8695 91.1058Z" fill="#233863"/>
<path d="M27.817 98.1347C27.6876 98.1347 27.5577 98.1086 27.4341 98.0567C27.1752 97.9478 26.9719 97.739 26.8614 97.468L26.2813 96.0473C26.2333 95.9286 26.2844 95.7912 26.3958 95.7398C26.508 95.6884 26.637 95.7431 26.6854 95.8613L27.2655 97.2826C27.3293 97.4391 27.4464 97.5596 27.5956 97.6222C27.7461 97.6857 27.9085 97.682 28.0551 97.6143L28.1532 97.5694C28.3878 97.4615 28.4961 97.1704 28.3944 96.9214L26.9261 93.3244C26.8214 93.067 26.5384 92.9492 26.2954 93.0599L26.1286 93.137C25.8707 93.2552 25.7518 93.5743 25.8632 93.8481L25.8993 93.936C25.9477 94.0546 25.8971 94.192 25.7857 94.2434C25.6752 94.2952 25.5445 94.2415 25.4961 94.1228L25.4596 94.0341C25.251 93.523 25.4728 92.9287 25.9534 92.7077L26.1202 92.6306C26.5841 92.418 27.1282 92.6446 27.3297 93.138L28.798 96.7354C28.9957 97.2209 28.7853 97.7871 28.328 97.9978L28.2298 98.0427C28.0978 98.1039 27.9574 98.1347 27.817 98.1347Z" fill="#233863"/>
<path d="M34.0605 92.8267C34.4223 93.2178 34.4165 93.8462 34.0481 94.2302C33.6797 94.6142 33.0878 94.6082 32.726 94.2171C32.3642 93.8261 32.3699 93.1977 32.7383 92.8136C33.1067 92.4296 33.6987 92.4352 34.0605 92.8267Z" fill="white"/>
<path d="M85.491 95.1773L59.0244 107.104C58.7387 107.233 58.4086 107.091 58.2871 106.788L43.075 68.7512C42.9535 68.448 43.0868 68.0976 43.3729 67.9686L69.8395 56.0418C70.1252 55.9129 70.4553 56.0544 70.5768 56.3581L85.789 94.3947C85.9104 94.6979 85.7771 95.0483 85.491 95.1773Z" fill="white"/>
<path d="M58.8048 107.853C58.6499 107.853 58.495 107.822 58.3471 107.758C58.0443 107.628 57.807 107.381 57.6794 107.062L42.4668 69.0257C42.2036 68.3674 42.4936 67.6044 43.1142 67.3246L69.5813 55.3978C69.8815 55.2623 70.2137 55.2595 70.517 55.3889C70.8198 55.5188 71.0566 55.7664 71.1843 56.0855L86.3969 94.1216C86.5245 94.4407 86.5272 94.7934 86.4053 95.1144C86.2829 95.4363 86.05 95.6877 85.7494 95.8232L59.2828 107.75C59.1288 107.819 58.9668 107.853 58.8048 107.853ZM51.5812 65.0317C47.1865 67.0121 45.1324 72.1035 46.9224 76.5791L55.368 97.6957C57.2701 102.452 62.7523 104.663 67.4222 102.559L77.2826 98.1152C81.6773 96.1347 83.7313 91.0434 81.9412 86.5678L73.4957 65.4514C71.5936 60.6955 66.1114 58.4838 61.4416 60.5882L51.5812 65.0317Z" fill="#233863"/>
<path d="M66.2496 70.6144C66.0784 70.6144 65.9155 70.5074 65.8442 70.3294C65.7492 70.0921 65.8535 69.8178 66.0775 69.7169L70.6286 67.6659C70.8504 67.5659 71.1105 67.6752 71.2061 67.9135C71.3011 68.1509 71.1964 68.4251 70.9728 68.526L66.4217 70.5771C66.3654 70.6023 66.3068 70.6144 66.2496 70.6144Z" fill="#233863"/>
<path d="M53.7486 84.7336C53.5774 84.7336 53.4146 84.6266 53.3433 84.4486C53.2482 84.2113 53.3525 83.937 53.5765 83.8361L73.5053 74.8555C73.7267 74.755 73.9872 74.8653 74.0827 75.1031C74.1778 75.3404 74.0731 75.6147 73.8495 75.7156L53.9207 84.6962C53.8648 84.7215 53.8063 84.7336 53.7486 84.7336Z" fill="#233863"/>
<path d="M67.7132 84.2165C67.542 84.2165 67.3792 84.1095 67.3079 83.9315C67.2128 83.6941 67.3171 83.4199 67.5411 83.319L75.4624 79.749C75.6842 79.6486 75.9443 79.7589 76.0394 79.9967C76.1345 80.234 76.0297 80.5083 75.8061 80.6092L67.8849 84.1791C67.8294 84.2043 67.7709 84.2165 67.7132 84.2165Z" fill="#FFB44F"/>
<path d="M55.7062 89.6272C55.5349 89.6272 55.3721 89.5202 55.3008 89.3426C55.2057 89.1053 55.31 88.8306 55.5341 88.7297L60.3831 86.5445C60.6049 86.445 60.8651 86.5544 60.9606 86.7922C61.0556 87.0295 60.9513 87.3042 60.7273 87.4051L55.8783 89.5903C55.8219 89.615 55.7634 89.6272 55.7062 89.6272Z" fill="#FFB44F"/>
<path d="M57.3524 95.344C57.1812 95.344 57.0183 95.2375 56.947 95.0595C56.852 94.8221 56.9563 94.5474 57.1803 94.4465L69.4554 88.9148C69.6777 88.8148 69.9374 88.9251 70.0324 89.1624C70.1275 89.3998 70.0232 89.6745 69.7992 89.7754L57.5241 95.3071C57.4682 95.3323 57.4101 95.344 57.3524 95.344Z" fill="#233863"/>
<path d="M71.9619 135.745L43.5345 131.167C43.2277 131.118 43.0164 130.814 43.0631 130.488L48.9025 89.6332C48.9491 89.3076 49.2356 89.0833 49.5424 89.1328L77.9699 93.711C78.2771 93.7605 78.4879 94.0647 78.4413 94.3903L72.6019 135.245C72.5557 135.571 72.2691 135.795 71.9619 135.745Z" fill="#3AAED5"/>
<path d="M72.0485 136.454C71.9869 136.454 71.9248 136.449 71.8628 136.439L43.4353 131.861C43.1127 131.809 42.8275 131.626 42.6343 131.347C42.4406 131.067 42.3609 130.725 42.4102 130.382L48.2492 89.528C48.298 89.1856 48.4697 88.8833 48.7329 88.6782C48.9956 88.4731 49.3187 88.388 49.6409 88.4394L78.0688 93.018C78.3914 93.0699 78.6762 93.2521 78.8694 93.5315C79.063 93.8109 79.1427 94.1529 79.0943 94.4958L73.2545 135.351C73.2056 135.693 73.034 135.995 72.7708 136.2C72.5591 136.367 72.3073 136.454 72.0485 136.454ZM44.9812 121.737C44.2867 126.596 47.6137 131.116 52.4597 131.896L62.9197 133.581C67.8886 134.381 72.548 130.951 73.2601 125.968L76.5228 103.141C77.2173 98.2819 73.8903 93.7625 69.0443 92.9821L58.584 91.2976C53.6151 90.4974 48.9556 93.9274 48.2436 98.9098L44.9812 121.737Z" fill="#233863"/>
<path d="M58.6685 96.4155C58.6465 96.4155 58.624 96.4136 58.602 96.4099L53.1451 95.531C52.9048 95.4927 52.7398 95.2544 52.7763 94.9989C52.8128 94.7438 53.0378 94.5667 53.2776 94.6074L58.7345 95.4862C58.9748 95.5245 59.1399 95.7628 59.1033 96.0183C59.0699 96.2496 58.8824 96.4155 58.6685 96.4155Z" fill="white"/>
<path d="M72.8356 104.971C72.8136 104.971 72.7911 104.969 72.7691 104.966L66.5028 103.957C66.2625 103.918 66.0974 103.68 66.134 103.424C66.1705 103.169 66.3937 102.993 66.6353 103.033L72.9016 104.042C73.1419 104.08 73.307 104.319 73.2704 104.574C73.237 104.806 73.0495 104.971 72.8356 104.971Z" fill="#233863"/>
<path d="M62.1326 103.25C62.1106 103.25 62.0881 103.248 62.0661 103.245L51.3637 101.521C51.1233 101.483 50.9583 101.245 50.9948 100.989C51.0313 100.734 51.2541 100.557 51.4961 100.597L62.1986 102.321C62.4389 102.36 62.604 102.598 62.5675 102.854C62.534 103.084 62.3465 103.25 62.1326 103.25Z" fill="white"/>
<path d="M62.52 111.214C62.498 111.214 62.4755 111.212 62.4535 111.208L50.2594 109.245C50.0191 109.206 49.854 108.968 49.8906 108.713C49.9271 108.457 50.1507 108.281 50.3919 108.321L62.586 110.285C62.8263 110.323 62.9914 110.561 62.9549 110.817C62.9214 111.048 62.7339 111.214 62.52 111.214Z" fill="#233863"/>
<path d="M70.6925 119.969C70.6704 119.969 70.648 119.967 70.626 119.963L49.2206 116.516C48.9803 116.478 48.8152 116.239 48.8517 115.984C48.8883 115.729 49.1119 115.553 49.3531 115.592L70.7585 119.039C70.9988 119.078 71.1638 119.316 71.1273 119.572C71.0939 119.803 70.9068 119.969 70.6925 119.969Z" fill="white"/>
<path d="M60.2193 126.184C60.1973 126.184 60.1753 126.182 60.1528 126.179L48.1158 124.241C47.8755 124.202 47.7105 123.964 47.747 123.708C47.7831 123.453 48.0032 123.278 48.2483 123.317L60.2853 125.255C60.5256 125.293 60.6907 125.531 60.6542 125.787C60.6216 126.018 60.4337 126.184 60.2193 126.184Z" fill="white"/>
<path d="M76.6764 165.863L26.0605 165.976C23.4008 165.982 21.2203 163.677 21.2146 160.853L21.1428 124.578C21.1371 121.755 23.3088 119.44 25.9685 119.434L76.5844 119.321C79.2442 119.315 81.4246 121.62 81.4304 124.444L81.5021 160.719C81.5078 163.542 79.3362 165.857 76.6764 165.863Z" fill="white"/>
<path d="M26.0504 166.444C24.6508 166.444 23.3308 165.863 22.3321 164.807C21.3308 163.748 20.778 162.344 20.7749 160.854L20.7031 124.579C20.7001 123.089 21.2476 121.683 22.245 120.62C23.2419 119.557 24.5645 118.97 25.9681 118.967L76.584 118.854C76.5879 118.854 76.5915 118.854 76.595 118.854C79.4995 118.854 81.8652 121.359 81.871 124.443L81.9427 160.718C81.9489 163.806 79.5866 166.324 76.6773 166.33L26.0614 166.444C26.0579 166.444 26.0535 166.444 26.0504 166.444ZM76.5945 119.789C76.591 119.789 76.5884 119.789 76.5853 119.789L25.9694 119.901C24.8009 119.904 23.6992 120.393 22.8682 121.279C22.0368 122.166 21.5803 123.336 21.583 124.577L21.6547 160.852C21.6574 162.093 22.1182 163.262 22.9527 164.145C23.7855 165.025 24.8849 165.509 26.05 165.509C26.0531 165.509 26.0566 165.509 26.0592 165.509L76.6751 165.396C79.099 165.39 81.0668 163.293 81.062 160.72L80.9902 124.445C80.9854 121.876 79.0144 119.789 76.5945 119.789Z" fill="#233863"/>
<path d="M77.0898 110.591L64.323 110.619C61.956 110.624 60.0229 112.685 60.0281 115.197C60.0352 118.779 57.1376 121.689 53.5556 121.697L27.7046 121.755C24.0875 121.763 21.1337 124.911 21.1416 128.751L21.2059 161.33C21.2134 165.169 24.1795 168.304 27.7966 168.296L74.9305 168.191C78.5475 168.183 81.5009 165.035 81.4934 161.195L81.4305 129.284L81.4292 128.617L81.4027 115.15C81.3979 112.637 79.4569 110.586 77.0898 110.591Z" fill="#3D85FD"/>
<path d="M27.7837 169C23.8 169 20.5548 165.564 20.5465 161.334L20.4822 128.755C20.4734 124.519 23.7133 121.066 27.704 121.056L53.5957 120.999C56.7906 120.992 59.375 118.396 59.3687 115.201C59.3656 113.799 59.881 112.476 60.819 111.476C61.7569 110.476 63.0012 109.924 64.3225 109.921L77.0893 109.893C77.0928 109.893 77.0968 109.893 77.0998 109.893C79.8322 109.893 82.058 112.249 82.0637 115.151L82.1549 161.196C82.1628 165.432 78.9229 168.886 74.933 168.894L27.7987 169C27.7934 169 27.7886 169 27.7837 169ZM77.091 111.295L64.3243 111.323C63.356 111.325 62.4431 111.731 61.7538 112.465C61.0646 113.2 60.6861 114.171 60.6883 115.199L60.701 121.684C60.7015 121.87 60.6324 122.048 60.5082 122.181C60.385 122.312 60.2173 122.386 60.0421 122.387L27.7058 122.459C24.4435 122.466 21.7947 125.289 21.8017 128.752L21.866 161.331C21.873 164.79 24.5262 167.598 27.7828 167.598C27.7868 167.598 27.7907 167.598 27.7947 167.598L74.9291 167.493C78.1909 167.486 80.8397 164.663 80.8331 161.199L80.742 115.154C80.7376 113.026 79.1079 111.299 77.1061 111.294C77.1011 111.294 77.096 111.295 77.091 111.295Z" fill="#233863"/>
<path opacity="0.12" d="M76.6467 115.788L65.2237 115.814C63.1057 115.818 61.3764 117.662 61.3808 119.911C61.3871 123.117 58.7941 125.721 55.5886 125.728L32.4595 125.779C29.2232 125.787 26.5806 128.604 26.5872 132.04L26.6448 161.196C26.6514 164.633 29.305 167.438 32.5419 167.431L74.7149 167.337C77.9513 167.33 80.5939 164.512 80.5873 161.076L80.5309 132.517L80.5296 131.92L80.5059 119.868C80.501 117.62 78.7647 115.783 76.6467 115.788Z" fill="white"/>
<path d="M77.3109 161.475C77.3109 162.735 76.3487 163.756 75.1617 163.756C73.9746 163.756 73.0125 162.735 73.0125 161.475C73.0125 160.215 73.9746 159.193 75.1617 159.193C76.3487 159.193 77.3109 160.215 77.3109 161.475Z" fill="white"/>
<path d="M78.8123 122.911C78.5689 122.911 78.3722 122.702 78.3722 122.444V116.233C78.3722 115.192 77.5011 114.344 76.4307 114.344H72.1679C71.9245 114.344 71.7278 114.135 71.7278 113.876C71.7278 113.618 71.9245 113.409 72.1679 113.409H76.4307C77.9866 113.409 79.2524 114.676 79.2524 116.233V122.444C79.2524 122.702 79.0553 122.911 78.8123 122.911Z" fill="white"/>
<path d="M47.3294 141.334C47.0451 141.334 46.7603 141.217 46.5446 140.985C46.1186 140.525 46.1247 139.786 46.5578 139.333C49.3512 136.418 54.0518 136.402 56.8202 139.34C57.2502 139.797 57.2502 140.536 56.8202 140.992C56.3902 141.448 55.6939 141.448 55.2643 140.992C53.3348 138.944 50.0474 138.967 48.1005 140.999C47.8866 141.223 47.608 141.334 47.3294 141.334Z" fill="white"/>
<path d="M51.6865 148.571C51.0787 148.571 50.5862 148.048 50.5862 147.403V135.582C50.5862 134.937 51.0787 134.414 51.6865 134.414C52.2944 134.414 52.7869 134.937 52.7869 135.582V147.403C52.7869 148.048 52.2944 148.571 51.6865 148.571Z" fill="white"/>
<path d="M59.7871 154.184H43.4565C42.152 154.184 41.0903 153.057 41.0903 151.672V145.374C41.0903 144.729 41.5829 144.206 42.1907 144.206C42.7985 144.206 43.291 144.729 43.291 145.374V151.672C43.291 151.769 43.3654 151.848 43.4565 151.848H59.7871C59.9491 151.848 60.0807 151.708 60.0807 151.536V145.374C60.0807 144.729 60.5732 144.206 61.181 144.206C61.7889 144.206 62.2814 144.729 62.2814 145.374V151.536C62.2814 152.996 61.1626 154.184 59.7871 154.184Z" fill="white"/>
<path d="M196.84 160.047L149.706 160.153C146.089 160.16 143.123 157.026 143.116 153.186L143.052 120.607C143.044 116.767 145.997 113.619 149.614 113.611L196.748 113.506C200.365 113.498 203.332 116.633 203.339 120.472L203.403 153.051C203.411 156.891 200.457 160.039 196.84 160.047Z" fill="#3D85FD"/>
<path d="M149.691 160.854C147.772 160.854 145.96 160.058 144.591 158.61C143.218 157.158 142.459 155.233 142.455 153.189L142.39 120.609C142.382 116.374 145.622 112.92 149.612 112.911L196.747 112.806C196.751 112.806 196.756 112.806 196.761 112.806C200.745 112.806 203.99 116.241 203.998 120.472L204.063 153.051C204.071 157.286 200.832 160.739 196.841 160.748L149.721 160.853C149.711 160.853 149.701 160.854 149.691 160.854ZM196.761 114.208C196.757 114.208 196.753 114.208 196.749 114.208L149.615 114.313C146.353 114.32 143.704 117.144 143.711 120.607L143.776 153.186C143.779 154.856 144.4 156.43 145.523 157.617C146.643 158.802 148.123 159.453 149.692 159.453C149.696 159.453 149.701 159.453 149.705 159.453L196.839 159.348C198.412 159.344 199.894 158.686 201.013 157.493C202.132 156.301 202.747 154.724 202.743 153.054L202.679 120.475C202.671 117.017 200.018 114.208 196.761 114.208Z" fill="#233863"/>
<path d="M196.84 160.047L149.706 160.153C146.089 160.16 143.123 157.026 143.116 153.186L143.052 120.607C143.044 116.767 145.997 113.619 149.614 113.611L196.748 113.506C200.365 113.498 203.332 116.633 203.339 120.472L203.403 153.051C203.411 156.891 200.457 160.039 196.84 160.047Z" fill="#FFB44F"/>
<path d="M149.691 160.854C147.772 160.854 145.96 160.058 144.591 158.61C143.218 157.158 142.459 155.233 142.455 153.189L142.39 120.609C142.382 116.374 145.622 112.92 149.612 112.911L196.747 112.806C196.751 112.806 196.756 112.806 196.761 112.806C200.745 112.806 203.99 116.241 203.998 120.472L204.063 153.051C204.071 157.286 200.832 160.739 196.841 160.748L149.721 160.853C149.711 160.853 149.701 160.854 149.691 160.854ZM196.761 114.208C196.757 114.208 196.753 114.208 196.749 114.208L149.615 114.313C146.353 114.32 143.704 117.144 143.711 120.607L143.776 153.186C143.779 154.856 144.4 156.43 145.523 157.617C146.643 158.802 148.123 159.453 149.692 159.453C149.696 159.453 149.701 159.453 149.705 159.453L196.839 159.348C198.412 159.344 199.894 158.686 201.013 157.493C202.132 156.301 202.747 154.724 202.743 153.054L202.679 120.475C202.671 117.017 200.018 114.208 196.761 114.208Z" fill="#233863"/>
<path opacity="0.24" d="M196.84 160.047L149.706 160.153C146.089 160.16 143.123 157.026 143.116 153.186L143.052 120.607C143.044 116.767 145.997 113.619 149.614 113.611L196.748 113.506C200.365 113.498 203.332 116.633 203.339 120.472L203.403 153.051C203.411 156.891 200.457 160.039 196.84 160.047Z" fill="#233863"/>
<path d="M198.581 162.951L147.965 163.064C145.306 163.07 143.125 160.765 143.119 157.941L143.048 121.666C143.042 118.843 145.214 116.528 147.873 116.522L198.489 116.409C201.149 116.403 203.329 118.708 203.335 121.532L203.407 157.807C203.413 160.631 201.241 162.945 198.581 162.951Z" fill="white"/>
<path d="M147.954 163.533C145.05 163.533 142.685 161.029 142.679 157.945L142.607 121.669C142.601 118.581 144.963 116.063 147.872 116.057L198.488 115.944C198.492 115.944 198.496 115.944 198.499 115.944C201.403 115.944 203.769 118.449 203.775 121.533L203.846 157.808C203.852 160.896 201.49 163.414 198.581 163.421L147.965 163.533C147.962 163.533 147.958 163.533 147.954 163.533ZM198.58 162.486C201.004 162.481 202.971 160.383 202.966 157.81L202.895 121.535C202.889 118.966 200.918 116.879 198.499 116.879C198.496 116.879 198.493 116.879 198.49 116.879L147.874 116.992C145.45 116.997 143.483 119.095 143.488 121.668L143.56 157.943C143.565 160.512 145.536 162.599 147.955 162.599C147.958 162.599 147.961 162.599 147.965 162.599L198.58 162.486Z" fill="#233863"/>
<path d="M198.581 165.863L147.965 165.976C145.306 165.982 143.125 163.677 143.119 160.853L143.048 124.578C143.042 121.755 145.214 119.44 147.873 119.434L198.489 119.321C201.149 119.315 203.329 121.62 203.335 124.444L203.407 160.719C203.413 163.542 201.241 165.857 198.581 165.863Z" fill="white"/>
<path d="M147.954 166.444C145.05 166.444 142.685 163.939 142.679 160.854L142.607 124.579C142.604 123.089 143.152 121.683 144.149 120.62C145.146 119.557 146.469 118.97 147.872 118.967L198.488 118.854C198.492 118.854 198.496 118.854 198.499 118.854C201.403 118.854 203.769 121.359 203.775 124.443L203.846 160.718C203.852 163.806 201.49 166.324 198.581 166.33L147.965 166.444C147.962 166.444 147.958 166.444 147.954 166.444ZM198.499 119.789C198.496 119.789 198.493 119.789 198.49 119.789L147.874 119.901C146.705 119.904 145.604 120.393 144.773 121.279C143.941 122.166 143.485 123.336 143.487 124.577L143.559 160.852C143.564 163.422 145.535 165.509 147.954 165.509C147.958 165.509 147.961 165.509 147.964 165.509L198.58 165.396C201.004 165.39 202.971 163.293 202.966 160.72L202.895 124.445C202.889 121.876 200.918 119.789 198.499 119.789Z" fill="#233863"/>
<path d="M198.994 110.591L186.227 110.619C183.86 110.624 181.928 112.685 181.932 115.197C181.94 118.779 179.042 121.689 175.46 121.697L149.609 121.755C145.992 121.763 143.039 124.911 143.046 128.751L143.111 161.33C143.118 165.169 146.084 168.304 149.701 168.296L196.835 168.191C200.452 168.183 203.406 165.035 203.398 161.195L203.335 129.284L203.334 128.617L203.308 115.15C203.302 112.637 201.362 110.586 198.994 110.591Z" fill="#FFB44F"/>
<path d="M149.688 169C145.704 169 142.459 165.564 142.451 161.334L142.387 128.755C142.378 124.519 145.618 121.066 149.609 121.056L175.5 120.999C178.695 120.992 181.279 118.396 181.273 115.201C181.27 113.799 181.785 112.476 182.724 111.476C183.661 110.476 184.906 109.924 186.227 109.921L198.994 109.893C198.997 109.893 199.001 109.893 199.004 109.893C200.322 109.893 201.564 110.439 202.503 111.432C203.445 112.428 203.965 113.748 203.968 115.151L204.059 161.196C204.063 163.24 203.312 165.169 201.945 166.627C200.577 168.085 198.763 168.89 196.837 168.894L149.703 169C149.698 169 149.693 169 149.688 169ZM198.996 111.295L186.229 111.323C185.261 111.325 184.348 111.731 183.658 112.465C182.969 113.2 182.591 114.171 182.593 115.199L182.605 121.684C182.606 122.071 182.311 122.386 181.946 122.387L149.61 122.459C146.348 122.466 143.699 125.289 143.706 128.752L143.771 161.331C143.777 164.79 146.43 167.598 149.687 167.598C149.691 167.598 149.695 167.598 149.699 167.598L196.833 167.493C198.406 167.49 199.889 166.831 201.007 165.638C202.126 164.446 202.741 162.869 202.737 161.199L202.646 115.154C202.644 114.126 202.262 113.157 201.57 112.425C200.882 111.698 199.973 111.296 199.011 111.294C199.006 111.294 199.001 111.295 198.996 111.295Z" fill="#233863"/>
<path opacity="0.12" d="M198.427 115.788L187.004 115.814C184.886 115.818 183.157 117.662 183.161 119.911C183.167 123.117 180.574 125.721 177.369 125.728L154.24 125.779C151.003 125.787 148.361 128.604 148.367 132.04L148.425 161.196C148.432 164.633 151.086 167.438 154.322 167.431L196.495 167.337C199.732 167.33 202.374 164.512 202.368 161.076L202.311 132.517L202.31 131.92L202.286 119.868C202.282 117.62 200.545 115.783 198.427 115.788Z" fill="white"/>
<path d="M199.091 161.475C199.091 162.735 198.129 163.756 196.942 163.756C195.755 163.756 194.792 162.735 194.792 161.475C194.792 160.215 195.755 159.193 196.942 159.193C198.129 159.193 199.091 160.215 199.091 161.475Z" fill="white"/>
<path d="M200.593 122.911C200.349 122.911 200.153 122.702 200.153 122.444V116.233C200.153 115.192 199.282 114.344 198.212 114.344H193.948C193.705 114.344 193.508 114.135 193.508 113.876C193.508 113.618 193.705 113.409 193.948 113.409H198.212C199.767 113.409 201.033 114.676 201.033 116.233V122.444C201.033 122.702 200.836 122.911 200.593 122.911Z" fill="white"/>
<path d="M180.092 143.651C177.298 146.566 172.597 146.582 169.829 143.643C169.399 143.187 169.399 142.448 169.829 141.992C170.259 141.535 170.955 141.535 171.385 141.992C173.314 144.04 176.602 144.016 178.549 141.985C178.982 141.533 179.678 141.54 180.105 141.999C180.531 142.459 180.525 143.198 180.092 143.651Z" fill="white"/>
<path d="M174.963 148.571C174.355 148.571 173.863 148.048 173.863 147.403V135.582C173.863 134.937 174.355 134.414 174.963 134.414C175.571 134.414 176.063 134.937 176.063 135.582V147.403C176.063 148.048 175.571 148.571 174.963 148.571Z" fill="white"/>
<path d="M183.064 154.184H166.734C165.429 154.184 164.367 153.057 164.367 151.672V145.374C164.367 144.729 164.86 144.206 165.468 144.206C166.076 144.206 166.568 144.729 166.568 145.374V151.672C166.568 151.769 166.643 151.848 166.734 151.848H183.064C183.226 151.848 183.358 151.708 183.358 151.536V145.374C183.358 144.729 183.85 144.206 184.458 144.206C185.066 144.206 185.558 144.729 185.558 145.374V151.536C185.558 152.996 184.44 154.184 183.064 154.184Z" fill="white"/>
<path d="M169.63 106.127L147.885 89.4909C147.633 89.2984 147.576 88.9251 147.758 88.6579L168.992 57.3855C169.174 57.1183 169.525 57.0576 169.777 57.2505L191.522 73.8867C191.773 74.0792 191.831 74.4525 191.649 74.7198L170.415 105.992C170.233 106.259 169.882 106.32 169.63 106.127Z" fill="white"/>
<path d="M169.956 106.94C169.701 106.94 169.454 106.856 169.243 106.695L147.499 90.0593C146.953 89.6403 146.829 88.8282 147.222 88.248L168.457 56.9756C168.648 56.6944 168.93 56.5089 169.252 56.4533C169.573 56.3986 169.897 56.4785 170.163 56.6813L191.907 73.3175C192.453 73.7357 192.578 74.5481 192.185 75.1284L170.95 106.401C170.759 106.682 170.476 106.868 170.154 106.923C170.088 106.934 170.021 106.94 169.956 106.94ZM170.015 105.558L170.015 105.557L170.015 105.558ZM153.128 81.947C150.447 85.8956 151.314 91.2505 155.105 94.1507L162.371 99.7103C166.478 102.852 172.381 101.896 175.286 97.618L186.278 81.4299C188.959 77.4813 188.091 72.1264 184.301 69.2263L177.034 63.6669C172.928 60.5251 167.025 61.4814 164.12 65.759L153.128 81.947Z" fill="#233863"/>
<path d="M169.63 106.127L147.885 89.4909C147.633 89.2984 147.576 88.9251 147.758 88.6579L168.992 57.3855C169.174 57.1183 169.525 57.0576 169.777 57.2505L191.522 73.8867C191.773 74.0792 191.831 74.4525 191.649 74.7198L170.415 105.992C170.233 106.259 169.882 106.32 169.63 106.127Z" fill="#3AAED5"/>
<path d="M169.956 106.94C169.701 106.94 169.454 106.856 169.243 106.695L147.499 90.0593C146.953 89.6403 146.829 88.8282 147.222 88.248L168.457 56.9756C168.648 56.6944 168.93 56.5089 169.252 56.4533C169.573 56.3986 169.897 56.4785 170.163 56.6813L191.907 73.3175C192.453 73.7357 192.578 74.5481 192.185 75.1284L170.95 106.401C170.759 106.682 170.476 106.868 170.154 106.923C170.088 106.934 170.021 106.94 169.956 106.94ZM170.015 105.558L170.015 105.557L170.015 105.558ZM153.128 81.947C150.447 85.8956 151.314 91.2505 155.105 94.1507L162.371 99.7103C166.478 102.852 172.381 101.896 175.286 97.618L186.278 81.4299C188.959 77.4813 188.091 72.1264 184.301 69.2263L177.034 63.6669C172.928 60.5251 167.025 61.4814 164.12 65.759L153.128 81.947Z" fill="#233863"/>
<path d="M182.941 81.029C182.852 81.029 182.761 81.0005 182.684 80.9407L178.934 78.0721C178.737 77.9212 178.692 77.6292 178.834 77.4203C178.976 77.2106 179.251 77.1624 179.449 77.3143L183.198 80.1829C183.395 80.3338 183.44 80.6258 183.298 80.8351C183.212 80.9618 183.077 81.029 182.941 81.029Z" fill="#233863"/>
<path d="M178.918 86.9562C178.829 86.9562 178.738 86.9277 178.661 86.8684L162.242 74.3071C162.045 74.1562 162.001 73.8642 162.142 73.6554C162.284 73.446 162.559 73.3979 162.757 73.5493L179.175 86.1101C179.372 86.261 179.417 86.553 179.275 86.7623C179.189 86.8885 179.054 86.9562 178.918 86.9562Z" fill="#233863"/>
<path d="M176.18 90.9855C176.091 90.9855 176.001 90.957 175.923 90.8977L169.397 85.9047C169.2 85.7538 169.156 85.4618 169.297 85.2525C169.439 85.0436 169.714 84.996 169.912 85.1464L176.437 90.1394C176.635 90.2903 176.679 90.5824 176.537 90.7917C176.452 90.9178 176.317 90.9855 176.18 90.9855Z" fill="#FFB44F"/>
<path d="M163.757 81.4818C163.668 81.4818 163.577 81.4533 163.5 81.3935L159.505 78.3375C159.308 78.1866 159.264 77.8946 159.405 77.6858C159.547 77.476 159.822 77.4283 160.02 77.5797L164.015 80.6357C164.212 80.7866 164.256 81.0786 164.114 81.2879C164.028 81.4145 163.893 81.4818 163.757 81.4818Z" fill="#FFB44F"/>
<path d="M166.368 90.3302C166.279 90.3302 166.189 90.3017 166.111 90.2419L155.998 82.505C155.801 82.3541 155.756 82.0621 155.898 81.8528C156.04 81.643 156.315 81.5953 156.513 81.7467L166.626 89.4831C166.823 89.6341 166.867 89.9261 166.726 90.1354C166.639 90.2624 166.505 90.3302 166.368 90.3302Z" fill="#233863"/>
<path d="M171.779 102.363L144.943 91.4048C144.654 91.2866 144.509 90.9414 144.62 90.6335L158.596 52.0662C158.708 51.7587 159.033 51.605 159.323 51.7237L186.159 62.6815C186.448 62.7997 186.593 63.145 186.482 63.4529L172.505 102.02C172.394 102.328 172.069 102.481 171.779 102.363Z" fill="white"/>
<path d="M171.979 103.102C171.833 103.102 171.685 103.074 171.542 103.015L144.706 92.0574C144.076 91.7995 143.762 91.0473 144.004 90.3796L157.98 51.8132C158.222 51.1456 158.931 50.8116 159.56 51.0676L186.396 62.0259C187.025 62.2828 187.34 63.035 187.098 63.7022L173.122 102.27C172.935 102.785 172.47 103.102 171.979 103.102ZM148.218 82.6569C146.572 87.1984 148.805 92.2293 153.277 94.0555L163.253 98.1289C167.985 100.061 173.375 97.6691 175.116 92.8632L182.885 71.4264C184.531 66.8849 182.298 61.8539 177.826 60.0279L167.85 55.9546C163.118 54.0223 157.728 56.4145 155.986 61.2204L148.218 82.6569Z" fill="#233863"/>
<path d="M171.779 102.363L144.943 91.4048C144.654 91.2866 144.509 90.9414 144.62 90.6335L158.596 52.0662C158.708 51.7587 159.033 51.605 159.323 51.7237L186.159 62.6815C186.448 62.7997 186.593 63.145 186.482 63.4529L172.505 102.02C172.394 102.328 172.069 102.481 171.779 102.363Z" fill="white"/>
<path d="M171.979 103.102C171.833 103.102 171.685 103.074 171.542 103.015L144.706 92.0574C144.076 91.7995 143.762 91.0473 144.004 90.3796L157.98 51.8132C158.222 51.1456 158.931 50.8116 159.56 51.0676L186.396 62.0259C187.025 62.2828 187.34 63.035 187.098 63.7022L173.122 102.27C172.935 102.785 172.47 103.102 171.979 103.102ZM148.218 82.6569C146.572 87.1984 148.805 92.2293 153.277 94.0555L163.253 98.1289C167.985 100.061 173.375 97.6691 175.116 92.8632L182.885 71.4264C184.531 66.8849 182.298 61.8539 177.826 60.0279L167.85 55.9546C163.118 54.0223 157.728 56.4145 155.986 61.2204L148.218 82.6569Z" fill="#233863"/>
<path d="M164.068 66.0288C164.015 66.0288 163.962 66.0185 163.91 65.9975L159.295 64.1132C159.068 64.0207 158.955 63.7502 159.042 63.5096C159.129 63.2685 159.384 63.1484 159.611 63.2414L164.226 65.1257C164.453 65.2182 164.566 65.4887 164.479 65.7293C164.411 65.9148 164.244 66.0288 164.068 66.0288Z" fill="#233863"/>
<path d="M176.316 79.8135C176.263 79.8135 176.21 79.8032 176.158 79.7822L155.951 71.5314C155.724 71.4389 155.611 71.1684 155.698 70.9278C155.786 70.6867 156.04 70.5661 156.267 70.6596L176.474 78.9104C176.701 79.0029 176.814 79.2734 176.727 79.5141C176.659 79.6995 176.492 79.8135 176.316 79.8135Z" fill="#233863"/>
<path d="M174.517 84.7739C174.465 84.7739 174.411 84.7636 174.359 84.7426L166.327 81.4628C166.101 81.3703 165.987 81.0998 166.075 80.8592C166.162 80.6181 166.416 80.4981 166.644 80.591L174.675 83.8708C174.902 83.9633 175.015 84.2338 174.928 84.4744C174.86 84.6599 174.693 84.7739 174.517 84.7739Z" fill="#FFB44F"/>
<path d="M159.227 78.53C159.175 78.53 159.121 78.5198 159.069 78.4987L154.153 76.4912C153.926 76.3986 153.812 76.1281 153.9 75.8875C153.987 75.6464 154.241 75.5264 154.469 75.6194L159.385 77.6269C159.612 77.7194 159.725 77.99 159.638 78.2306C159.57 78.416 159.403 78.53 159.227 78.53Z" fill="#FFB44F"/>
<path d="M164.197 86.9274C164.145 86.9274 164.091 86.9176 164.039 86.8966L151.593 81.8143C151.366 81.7218 151.253 81.4513 151.34 81.2107C151.428 80.9701 151.682 80.8496 151.909 80.9425L164.356 86.0243C164.582 86.1168 164.695 86.3873 164.608 86.6284C164.54 86.8139 164.374 86.9274 164.197 86.9274Z" fill="#233863"/>
<path d="M122.209 85.4496L90.4261 73.9307C90.0626 73.7989 89.8685 73.3794 89.9926 72.9935L104.815 26.9121C104.939 26.5262 105.335 26.3202 105.698 26.4519L137.481 37.9708C137.844 38.1026 138.038 38.5222 137.914 38.9081L123.092 84.9894C122.968 85.3753 122.572 85.5814 122.209 85.4496Z" fill="#FFB44F"/>
<path d="M122.432 86.1917C122.288 86.1917 122.14 86.1669 121.996 86.1146L90.2131 74.5956C89.8707 74.4718 89.5938 74.2135 89.4341 73.8682C89.2747 73.5229 89.251 73.1324 89.3681 72.7684L104.191 26.687C104.308 26.3231 104.551 26.0297 104.877 25.8601C105.202 25.691 105.569 25.6653 105.913 25.79L137.694 37.3089C138.037 37.4332 138.314 37.6916 138.474 38.0368C138.633 38.3821 138.657 38.7727 138.539 39.1366L123.717 85.2175C123.524 85.8146 122.996 86.1917 122.432 86.1917ZM105.477 27.1155C105.462 27.1155 105.445 27.1262 105.44 27.1402L90.6176 73.2216C90.6119 73.2384 90.6238 73.2632 90.6396 73.2692L122.422 84.7881C122.422 84.7882 122.422 84.7882 122.422 84.7882C122.423 84.7882 122.423 84.7882 122.423 84.7883C122.438 84.7932 122.462 84.7816 122.467 84.7648L137.29 38.6835C137.296 38.6666 137.283 38.6414 137.267 38.6358L105.486 27.1169C105.482 27.1159 105.479 27.1155 105.477 27.1155Z" fill="#233863"/>
<path d="M128.805 82.3802L95.3285 79.534C94.9456 79.5013 94.6599 79.1457 94.6908 78.7388L98.3532 30.2009C98.384 29.7944 98.7194 29.4912 99.1023 29.5239L132.579 32.3701C132.962 32.4028 133.248 32.7588 133.217 33.1653L129.554 81.7032C129.524 82.1097 129.188 82.4124 128.805 82.3802Z" fill="white"/>
<path d="M128.863 83.0819C128.826 83.0819 128.789 83.0805 128.752 83.0772L95.2752 80.231C94.9143 80.2001 94.5864 80.0221 94.3513 79.7297C94.1163 79.4372 94.0028 79.0644 94.0318 78.6813L97.6938 30.1438C97.7541 29.3524 98.4095 28.7609 99.1537 28.8239L132.63 31.6702C133.375 31.7337 133.933 32.4284 133.873 33.2194L130.211 81.7578C130.182 82.1409 130.015 82.4894 129.739 82.7389C129.492 82.9618 129.185 83.0819 128.863 83.0819ZM99.0463 30.2209C99.0279 30.2209 99.0124 30.2358 99.0107 30.2559L95.3487 78.7934C95.3474 78.8116 95.3645 78.8326 95.3813 78.834L128.803 81.6756C128.84 81.6787 128.894 81.6825 128.896 81.6461L132.559 33.1078C132.56 33.0872 132.546 33.069 132.526 33.0671L99.049 30.2209C99.0481 30.2209 99.0472 30.2209 99.0463 30.2209Z" fill="#233863"/>
<path d="M127.675 40.5485C127.664 40.5485 127.651 40.5481 127.639 40.5471L119.159 39.8258C118.917 39.8052 118.736 39.58 118.756 39.3226C118.775 39.0656 118.98 38.8731 119.23 38.8941L127.71 39.6155C127.952 39.6361 128.133 39.8613 128.113 40.1187C128.095 40.363 127.903 40.5485 127.675 40.5485Z" fill="#FFB44F"/>
<path d="M127.459 43.4241C127.447 43.4241 127.435 43.4236 127.423 43.4227L118.942 42.7018C118.7 42.6812 118.519 42.456 118.539 42.1986C118.558 41.9417 118.768 41.7487 119.013 41.7702L127.493 42.4915C127.736 42.5121 127.916 42.7373 127.897 42.9947C127.879 43.2386 127.686 43.4241 127.459 43.4241Z" fill="#FFB44F"/>
<path d="M107.604 74.3455C107.592 74.3455 107.58 74.345 107.568 74.3441L99.0874 73.6227C98.8453 73.6021 98.6644 73.3769 98.6838 73.1195C98.7032 72.8625 98.9149 72.6696 99.1578 72.6911L107.638 73.412C107.881 73.4325 108.061 73.6577 108.042 73.9152C108.024 74.16 107.831 74.3455 107.604 74.3455Z" fill="#FFB44F"/>
<path d="M107.975 58.7015C107.963 58.7015 107.951 58.701 107.939 58.7001L100.399 58.0591C100.157 58.0385 99.9762 57.8133 99.9956 57.5559C100.015 57.2994 100.224 57.1041 100.47 57.1279L108.01 57.7689C108.252 57.7895 108.433 58.0147 108.413 58.2721C108.395 58.516 108.202 58.7015 107.975 58.7015Z" fill="#233863"/>
<path d="M112.597 69.8316C112.586 69.8316 112.574 69.8311 112.562 69.8302L99.5947 68.728C99.3527 68.7075 99.1718 68.4823 99.1911 68.2253C99.2109 67.9684 99.4191 67.7731 99.6652 67.7969L112.632 68.899C112.874 68.9196 113.055 69.1448 113.036 69.4017C113.017 69.6461 112.825 69.8316 112.597 69.8316Z" fill="#233863"/>
<path d="M109.849 64.2304C109.838 64.2304 109.825 64.2299 109.814 64.229L99.9966 63.3941C99.7545 63.3736 99.5736 63.1484 99.593 62.8909C99.6123 62.634 99.817 62.4415 100.067 62.4625L109.884 63.2974C110.126 63.318 110.307 63.5432 110.288 63.8006C110.269 64.0449 110.077 64.2304 109.849 64.2304Z" fill="#233863"/>
<path d="M126.154 55.3124C126.143 55.3124 126.13 55.3119 126.119 55.311L100.731 53.1525C100.489 53.1319 100.308 52.9067 100.327 52.6493C100.346 52.3923 100.552 52.1961 100.801 52.2209L126.189 54.3794C126.431 54.3999 126.612 54.6251 126.593 54.8825C126.574 55.1269 126.382 55.3124 126.154 55.3124Z" fill="#233863"/>
<path d="M125.112 65.4855C125.1 65.4855 125.088 65.485 125.076 65.4841L112.945 64.453C112.703 64.4324 112.522 64.2072 112.542 63.9498C112.561 63.6933 112.767 63.4985 113.016 63.5214L125.146 64.553C125.389 64.5735 125.569 64.7987 125.55 65.0561C125.532 65.3 125.339 65.4855 125.112 65.4855Z" fill="#233863"/>
<path d="M126.348 60.2644C126.335 60.2644 126.322 60.2639 126.31 60.263L110.753 58.8693C110.51 58.8478 110.331 58.6217 110.351 58.3642C110.372 58.1068 110.587 57.9199 110.827 57.9377L126.384 59.3314C126.627 59.3529 126.806 59.579 126.785 59.8364C126.766 60.0803 126.574 60.2644 126.348 60.2644Z" fill="#233863"/>
</svg>
