<svg width="248" height="216" viewBox="0 0 248 216" fill="none" xmlns="http://www.w3.org/2000/svg">
<path d="M38.8373 176.779C49.2239 183.602 58.0281 193.161 63.783 205.014C65.673 208.906 67.8767 212.578 70.3452 215.999H171.412C171.573 215.776 171.738 215.556 171.897 215.329C181.517 201.664 193.446 190.337 206.971 181.781C226.788 169.244 240.169 145.42 240.169 118.094C240.169 92.2619 228.212 69.5637 210.164 56.5686C197.75 47.6302 186.594 36.7287 176.823 24.3378C165.051 9.41221 147.844 0 128.673 0C110.626 0 94.3171 8.34048 82.6463 21.7698C71.4941 34.6025 58.0971 44.6286 43.6584 52.3085C22.4167 63.6071 7.72925 87.8682 7.72925 115.976C7.72868 141.902 20.2267 164.554 38.8373 176.779Z" fill="white"/>
<path d="M49.5325 43.7179C58.2846 37.3909 62.8858 27.9276 59.8096 22.5811C56.7335 17.2345 47.1448 18.0294 38.3928 24.3564C29.6407 30.6834 25.0395 40.1467 28.1157 45.4933C31.1918 50.8398 40.7805 50.045 49.5325 43.7179Z" fill="white"/>
<path d="M210.516 43.7739C214.5 40.8937 214.986 33.7903 211.602 27.9081C208.217 22.0258 202.244 19.5922 198.26 22.4724C194.276 25.3526 193.789 32.456 197.174 38.3383C200.558 44.2205 206.532 46.6542 210.516 43.7739Z" fill="white"/>
<path d="M241.748 190.79C245.201 187.204 245.615 181.411 242.672 177.851C239.73 174.291 234.545 174.313 231.093 177.899C227.64 181.485 227.226 187.277 230.168 190.837C233.111 194.397 238.295 194.376 241.748 190.79Z" fill="white"/>
<path d="M6.76693 181.774C11.3439 182.881 15.8118 179.843 16.7468 174.988C17.6818 170.132 14.7296 165.299 10.1527 164.192C5.57578 163.084 1.10782 166.122 0.172811 170.978C-0.762198 175.832 2.19058 180.666 6.76693 181.774Z" fill="white"/>
<path d="M58.5997 87.4583C61.694 97.5599 60.0271 108.977 54.3286 111.169C48.6301 113.363 41.0582 105.503 37.9639 95.4004C34.8697 85.2988 41.1797 68.2432 41.1797 68.2432C41.1797 68.2432 55.5055 77.3568 58.5997 87.4583Z" fill="#FFA84A"/>
<path d="M43.9303 76.3937L43.4841 76.5654L55.53 115.896L55.9763 115.725L43.9303 76.3937Z" fill="white"/>
<path d="M41.6412 87.0434L41.434 87.5186L47.9306 91.0786L48.1378 90.6035L41.6412 87.0434Z" fill="white"/>
<path d="M55.1686 95.2472L51.7333 103.124L52.1571 103.356L55.5925 95.4794L55.1686 95.2472Z" fill="white"/>
<path d="M41.2915 137.645C49.4475 134.506 58.6647 136.198 60.4355 141.978C62.2062 147.759 55.8597 155.441 47.7042 158.58C39.5487 161.719 25.778 155.317 25.778 155.317C25.778 155.317 33.1354 140.784 41.2915 137.645Z" fill="#FFA84A"/>
<path d="M64.1148 140.308L32.3604 152.527L32.4989 152.98L64.2534 140.76L64.1148 140.308Z" fill="white"/>
<path d="M43.8284 148.269L40.9541 154.859L41.3375 155.069L44.2118 148.479L43.8284 148.269Z" fill="white"/>
<path d="M47.7734 140.689L47.5859 141.119L53.9457 144.604L54.1331 144.174L47.7734 140.689Z" fill="white"/>
<path d="M57.3305 100.247C54.4684 99.0068 50.62 100.401 49.8704 103.7C49.5572 105.08 49.4014 107.068 48.1259 107.101C47.3295 107.122 46.7641 106.232 46.4338 105.415C45.492 103.084 45.1788 100.513 44.4948 98.0758C43.8108 95.6382 42.6173 93.1762 40.5745 92.0252C38.531 90.8742 35.5537 91.7004 34.9216 94.1329C34.5411 95.5966 34.9718 97.4632 33.9592 98.4748C32.9603 99.473 31.2689 98.7485 30.4485 97.5348C29.6282 96.3211 29.339 94.7736 28.7069 93.4288C26.6674 89.0895 20.6672 87.9774 17.5866 91.3679C17.4691 91.4977 17.359 91.6332 17.2529 91.7726C17.1433 91.9082 17.0372 92.0476 16.9374 92.1953C14.3275 96.0506 16.0726 102.581 20.1709 104.298C21.4413 104.83 22.8475 104.956 24.025 105.715C25.203 106.473 26.0587 108.262 25.3017 109.499C24.535 110.754 22.8287 110.511 21.5816 111.119C19.5091 112.13 19.1554 115.546 20.4333 117.672C21.7111 119.798 24.041 120.812 26.2846 121.265C28.5283 121.716 30.8427 121.738 33.0248 122.49C33.7898 122.754 34.6489 123.269 34.7317 124.158C34.864 125.581 33.1246 126.005 31.9438 126.529C29.1199 127.781 28.3737 132.237 29.8336 135.262C31.2934 138.287 34.2485 140.041 37.1796 141.049C41.9088 142.676 46.8737 142.799 51.7586 142.802C56.4902 142.804 68.2773 143.077 68.752 142.591C69.1222 142.002 67.3862 128.93 66.7838 123.67C66.162 118.238 65.4232 112.733 63.3844 107.681C62.1196 104.55 60.1925 101.487 57.3305 100.247Z" fill="#59A9EA"/>
<path d="M40.0884 114.589L26.7644 115.424L26.729 114.866L40.053 114.03L40.0884 114.589Z" fill="white"/>
<path d="M56.4288 110.053L55.9307 110.084L57.2548 130.875L40.3214 114.166L39.3784 99.3613L38.8804 99.3927L39.788 113.639L25.7189 99.7559L25.3915 100.173L56.9382 131.302L38.3521 132.467L38.3875 133.025L57.4716 131.829L68.5873 142.797L68.9142 142.381L57.7882 131.402L56.4288 110.053Z" fill="white"/>
<path d="M202.695 81.4368C206.609 91.1745 205.89 102.715 200.397 105.489C194.904 108.263 186.716 101.222 182.802 91.4834C178.888 81.7457 183.765 64.1094 183.765 64.1094C183.765 64.1094 198.781 71.6985 202.695 81.4368Z" fill="#59A9EA"/>
<path d="M187.167 71.9478L186.737 72.165L201.977 110.077L202.407 109.86L187.167 71.9478Z" fill="white"/>
<path d="M185.769 82.7603L185.602 83.2549L192.365 86.126L192.532 85.6314L185.769 82.7603Z" fill="white"/>
<path d="M199.922 89.5437L197.151 97.7432L197.592 97.9305L200.363 89.731L199.922 89.5437Z" fill="white"/>
<path d="M210.89 109.364C206.132 118.618 197.361 124.714 192.14 121.341C186.92 117.969 187.228 106.405 191.986 97.1517C196.743 87.8981 212.358 82.0176 212.358 82.0176C212.358 82.0176 215.648 100.11 210.89 109.364Z" fill="#FFA84A"/>
<path d="M208.268 89.4427L189.744 125.472L190.153 125.736L208.676 89.7067L208.268 89.4427Z" fill="white"/>
<path d="M200.023 94.7465L199.567 94.8838L201.444 102.712L201.9 102.574L200.023 94.7465Z" fill="white"/>
<path d="M203.382 111.589L195.828 113.864L195.95 114.375L203.504 112.1L203.382 111.589Z" fill="white"/>
<path d="M226.655 140.231C227.408 136.987 225.775 132.964 222.843 132.517C221.616 132.33 219.881 132.382 219.711 131.001C219.605 130.139 220.311 129.427 220.98 128.977C222.889 127.696 225.075 127.07 227.105 126.057C229.134 125.043 231.129 123.475 231.896 121.129C232.663 118.783 231.619 115.643 229.448 115.227C228.141 114.977 226.576 115.652 225.589 114.665C224.616 113.692 225.054 111.775 226.012 110.75C226.969 109.725 228.274 109.239 229.365 108.403C232.888 105.708 233.181 99.0708 229.91 96.1037C229.785 95.9905 229.655 95.8863 229.523 95.7859C229.394 95.6823 229.262 95.5819 229.123 95.4905C225.503 93.0861 220.055 95.7053 219.026 100.345C218.707 101.783 218.755 103.323 218.231 104.685C217.707 106.048 216.256 107.176 215.104 106.492C213.935 105.799 213.955 103.919 213.291 102.634C212.187 100.497 209.197 100.492 207.503 102.115C205.808 103.738 205.19 106.38 205.049 108.866C204.908 111.352 205.146 113.866 204.739 116.318C204.596 117.178 204.246 118.168 203.488 118.356C202.273 118.658 201.713 116.817 201.13 115.593C199.735 112.667 195.802 112.352 193.351 114.273C190.9 116.193 189.713 119.596 189.168 122.889C188.288 128.203 188.733 133.606 189.274 138.909C189.797 144.045 190.87 156.87 191.343 157.331C191.894 157.668 202.993 154.331 207.471 153.093C212.094 151.815 216.767 150.402 220.905 147.627C223.469 145.907 225.902 143.476 226.655 140.231Z" fill="#59A9EA"/>
<path d="M212.349 123.108L210.148 108.738L210.626 108.638L212.827 123.008L212.349 123.108Z" fill="white"/>
<path d="M218.081 140.341L217.999 139.804L200.185 143.551L212.739 123.314L225.424 120.647L225.342 120.109L213.135 122.677L223.565 105.864L223.169 105.555L199.782 143.255L196.71 123.21L196.232 123.311L199.386 143.892L191.145 157.176L191.541 157.485L199.79 144.189L218.081 140.341Z" fill="white"/>
<path d="M192.16 93.6049V177.037C192.16 180.584 189.593 183.461 186.424 183.461H57.1971C54.0321 183.461 51.4615 180.584 51.4615 177.037V93.6049C51.4615 90.0527 54.0327 87.1758 57.1971 87.1758H186.424C189.593 87.1751 192.16 90.0527 192.16 93.6049Z" fill="#98CCFE"/>
<path d="M51.4626 162.876V177.034C51.4626 180.583 54.0298 183.461 57.1971 183.461H186.425C189.592 183.461 192.16 180.584 192.16 177.034V162.876H51.4626Z" fill="#307AF2"/>
<path d="M136.126 183.461H107.496V208.698H136.126V183.461Z" fill="#98CCFE"/>
<path d="M136.128 183.462H107.495V191.651H136.128V183.462Z" fill="#59A9EA"/>
<path d="M143.434 208.694H100.188C96.5888 208.694 93.6714 211.965 93.6714 215.999H149.95C149.95 211.965 147.033 208.694 143.434 208.694Z" fill="#98CCFE"/>
<path d="M94.1226 213.343C93.8351 214.167 93.6714 215.06 93.6714 215.999H149.95C149.95 215.061 149.786 214.167 149.499 213.343H94.1226Z" fill="#59A9EA"/>
<path d="M121.358 124.044V118.159L108.682 87.1748H97.2723L112.351 124.044H121.358Z" fill="#307AF2"/>
<path d="M130.364 124.044L145.441 87.1748H134.031L121.358 118.159V124.044H130.364Z" fill="#307AF2"/>
<path d="M132.176 142.252C138.152 135.553 138.152 124.691 132.176 117.992C126.199 111.293 116.509 111.293 110.533 117.992C104.556 124.691 104.556 135.553 110.533 142.252C116.509 148.952 126.199 148.952 132.176 142.252Z" fill="#FF8736"/>
<path d="M121.356 145.782C129.073 145.782 135.328 138.77 135.328 130.121C135.328 121.472 129.073 114.46 121.356 114.46C113.64 114.46 107.385 121.472 107.385 130.121C107.385 138.77 113.64 145.782 121.356 145.782Z" fill="#FFA84A"/>
<path d="M128.997 138.689C133.218 133.957 133.218 126.287 128.997 121.555C124.776 116.824 117.933 116.824 113.712 121.555C109.491 126.287 109.491 133.957 113.712 138.689C117.933 143.42 124.776 143.42 128.997 138.689Z" fill="#FF8736"/>
<path d="M128.2 120.744C129.726 122.833 130.643 125.504 130.643 128.415C130.643 135.106 125.804 140.53 119.835 140.53C117.238 140.53 114.855 139.503 112.992 137.791C114.973 140.504 117.984 142.236 121.356 142.236C127.326 142.236 132.165 136.812 132.165 130.121C132.165 126.341 130.62 122.966 128.2 120.744Z" fill="#FF8533"/>
<path opacity="0.54" d="M121.087 123.14L122.288 127.284H126.175L123.031 129.845L124.232 133.989L121.087 131.428L117.942 133.989L119.144 129.845L115.999 127.284H119.886L121.087 123.14Z" fill="#FF8533"/>
<path opacity="0.38" d="M192.135 93.0642C191.89 89.7653 189.43 87.1748 186.423 87.1748H57.1971C54.1947 87.1748 51.7313 89.7653 51.4855 93.0642H192.135Z" fill="#307AF2"/>
<path d="M169.961 57.6909L157.718 61.8948L156.211 62.4089L121.818 74.2159L73.6741 57.6909L121.818 41.166L156.211 52.9724L157.718 53.4865L169.961 57.6909Z" fill="#240D7C"/>
<path d="M156.211 52.9719L123.31 41.6777L121.818 43.4068V74.2154L156.211 62.4084L157.718 61.8943L169.961 57.6905L157.718 53.486L156.211 52.9719Z" fill="#0F0756"/>
<path d="M121.818 43.4073L156.211 55.2137L157.718 55.7284L166.697 58.8113L169.961 57.6909L157.718 53.4865L156.211 52.9724L121.818 41.166L73.6741 57.6909L76.9389 58.8113L121.818 43.4073Z" fill="#363DB3"/>
<path d="M148.752 62.6445H94.8853V87.1742H148.752V62.6445Z" fill="#240D7C"/>
<path d="M105.77 62.6445H94.8853V87.1742H105.77V62.6445Z" fill="#363DB3"/>
<path d="M148.752 62.6445H130.792V87.1742H148.752V62.6445Z" fill="#0F0756"/>
<path d="M157.718 53.4868V77.8432H156.211V52.9727L157.273 53.3365L157.718 53.4868Z" fill="#FFA84A"/>
<path d="M157.718 53.4862V77.8426H157.273V53.3359L157.718 53.4862Z" fill="#FF8736"/>
<path d="M157.719 78.2324H156.213L154.763 82.1811C154.585 82.6639 154.902 83.194 155.368 83.194H158.564C159.03 83.194 159.347 82.6639 159.169 82.1811L157.719 78.2324Z" fill="#FFA84A"/>
<path d="M159.169 82.1808L157.719 78.2314H156.95L158.4 82.1808C158.578 82.6635 158.261 83.1937 157.795 83.1937H158.564C159.03 83.1937 159.347 82.6635 159.169 82.1808Z" fill="#FF8736"/>
<path d="M158.744 77.1321C158.744 78.2563 157.931 79.1675 156.928 79.1675C155.925 79.1675 155.112 78.2563 155.112 77.1321C155.112 76.0079 155.925 75.0967 156.928 75.0967C157.931 75.096 158.744 76.0079 158.744 77.1321Z" fill="#FFA84A"/>
<path d="M157.719 74.4115V75.2953C157.482 75.1654 157.213 75.0926 156.926 75.0926C156.671 75.0926 156.43 75.1495 156.212 75.2588V74.3859C156.439 74.313 156.68 74.2715 156.926 74.2715C157.203 74.2715 157.468 74.3233 157.719 74.4115Z" fill="#FF8736"/>
<path d="M156.927 75.0957C156.908 75.0957 156.89 75.1015 156.87 75.1021C157.408 75.3138 157.795 75.8816 157.795 76.5569C157.795 77.4118 157.177 78.1044 156.414 78.1044C155.813 78.1044 155.306 77.6702 155.117 77.0678C155.116 77.0895 155.111 77.11 155.111 77.1317C155.111 78.2559 155.924 79.1671 156.927 79.1671C157.93 79.1671 158.742 78.2559 158.742 77.1317C158.744 76.0069 157.931 75.0957 156.927 75.0957Z" fill="#FF8736"/>
<path d="M148.752 62.6445H94.8853V65.5649H148.752V62.6445Z" fill="#0F0756"/>
<path d="M203.438 113.857H148.236C146.203 113.857 144.554 115.705 144.554 117.984V131.067C144.554 133.341 146.195 135.187 148.223 135.194L167.233 135.266C169.211 135.274 171.107 136.158 172.506 137.726L173.192 138.495C174.646 140.125 177.008 140.103 178.439 138.448L179.056 137.734C180.468 136.102 182.409 135.18 184.437 135.18H203.437C205.47 135.18 207.119 133.333 207.119 131.053V117.984C207.12 115.705 205.471 113.857 203.438 113.857Z" fill="#307AF2"/>
<path d="M154.011 119.821L154.967 123.123H158.065L155.56 125.164L156.516 128.466L154.011 126.426L151.505 128.466L152.462 125.164L149.956 123.123H153.053L154.011 119.821Z" fill="#FFA84A"/>
<path d="M164.924 119.821L165.881 123.123H168.979L166.473 125.164L167.43 128.466L164.924 126.426L162.418 128.466L163.375 125.164L160.869 123.123H163.966L164.924 119.821Z" fill="#FFA84A"/>
<path d="M175.837 119.821L176.794 123.123H179.892L177.386 125.164L178.343 128.466L175.837 126.426L173.331 128.466L174.288 125.164L171.782 123.123H174.88L175.837 119.821Z" fill="#FFA84A"/>
<path d="M186.75 119.821L187.708 123.123H190.805L188.299 125.164L189.257 128.466L186.75 126.426L184.244 128.466L185.202 125.164L182.696 123.123H185.793L186.75 119.821Z" fill="#FFA84A"/>
<path d="M197.664 119.821L198.621 123.123H201.718L199.212 125.164L200.17 128.466L197.664 126.426L195.158 128.466L196.115 125.164L193.609 123.123H196.706L197.664 119.821Z" fill="#FFA84A"/>
<path d="M216.26 150.509H124.81V216H216.26V150.509Z" fill="#E5F1FF"/>
<path d="M135.976 212.431H127.994V203.825C128.089 203.82 128.185 203.82 128.28 203.82C132.528 203.82 135.967 207.674 135.976 212.431Z" fill="#307AF2"/>
<path d="M127.994 154.077H135.976C135.976 154.082 135.976 154.082 135.976 154.087C135.976 158.854 132.533 162.714 128.28 162.714C128.185 162.714 128.089 162.714 127.994 162.709V154.077Z" fill="#307AF2"/>
<path d="M213.076 154.077V162.703C208.969 162.52 205.694 158.732 205.694 154.087C205.694 154.082 205.694 154.082 205.694 154.077H213.076Z" fill="#307AF2"/>
<path d="M213.076 203.831V212.432H205.694C205.703 207.798 208.974 204.015 213.076 203.831Z" fill="#307AF2"/>
<path d="M200.968 154.087H140.706V155.329H200.968V154.087Z" fill="#307AF2"/>
<path d="M200.968 211.188H140.706V212.43H200.968V211.188Z" fill="#307AF2"/>
<path d="M129.102 167.283H127.994V199.8H129.102V167.283Z" fill="#307AF2"/>
<path d="M213.076 167.283H211.968V199.8H213.076V167.283Z" fill="#307AF2"/>
<path d="M183.463 161.983H139.197V165.811H183.463V161.983Z" fill="#98CCFE"/>
<path d="M183.463 190.925H139.197V192.424H183.463V190.925Z" fill="#98CCFE"/>
<path d="M170.082 181.677H139.197V183.176H170.082V181.677Z" fill="#98CCFE"/>
<path d="M161.08 169.547H139.197V173.374H161.08V169.547Z" fill="#98CCFE"/>
<path d="M155.455 203.278H139.197V205.513H155.455V203.278Z" fill="#98CCFE"/>
<path d="M177.728 203.278H161.47V205.513H177.728V203.278Z" fill="#98CCFE"/>
<path d="M198.536 180.436L199.412 181.003C199.713 181.197 200.054 181.299 200.401 181.299H201.413C202.119 181.299 202.772 181.722 203.125 182.408L203.631 183.39C203.805 183.727 204.054 184.006 204.355 184.201L205.231 184.769C205.843 185.164 206.22 185.896 206.22 186.688V187.823C206.22 188.211 206.311 188.594 206.485 188.931L206.991 189.913C207.344 190.598 207.344 191.444 206.991 192.129L206.485 193.112C206.311 193.449 206.22 193.831 206.22 194.22V195.354C206.22 196.146 205.843 196.877 205.231 197.274L204.355 197.841C204.054 198.035 203.805 198.315 203.631 198.652L203.125 199.635C202.772 200.32 202.119 200.743 201.413 200.743H200.401C200.054 200.743 199.713 200.845 199.412 201.04L198.536 201.607C197.924 202.003 197.17 202.003 196.558 201.607L195.682 201.04C195.381 200.845 195.04 200.743 194.693 200.743H193.681C192.975 200.743 192.322 200.32 191.969 199.635L191.463 198.652C191.289 198.315 191.04 198.036 190.739 197.841L189.863 197.274C189.251 196.878 188.874 196.146 188.874 195.354V194.22C188.874 193.831 188.783 193.449 188.609 193.112L188.103 192.129C187.75 191.444 187.75 190.598 188.103 189.913L188.609 188.931C188.783 188.594 188.874 188.211 188.874 187.823V186.688C188.874 185.897 189.251 185.165 189.863 184.769L190.739 184.201C191.04 184.007 191.289 183.727 191.463 183.39L191.969 182.408C192.322 181.722 192.975 181.299 193.681 181.299H194.693C195.04 181.299 195.381 181.197 195.682 181.003L196.558 180.436C197.17 180.04 197.924 180.04 198.536 180.436Z" fill="#FFA84A"/>
<path d="M198.546 197.948C201.955 197.326 204.269 193.724 203.714 189.902C203.159 186.081 199.945 183.488 196.536 184.11C193.127 184.732 190.813 188.334 191.368 192.156C191.923 195.977 195.137 198.57 198.546 197.948Z" fill="#FF8736"/>
<path d="M80.2739 191.369H22.75V206.22H80.2739V191.369Z" fill="#FF8533"/>
<path opacity="0.58" d="M80.2739 203.67H22.75V206.221H80.2739V203.67Z" fill="#FF8533"/>
<path d="M83.2131 181.824H25.6892V191.394H83.2131V181.824Z" fill="#240D7C"/>
<path d="M35.2612 181.824H25.6892V191.394H35.2612V181.824Z" fill="#363DB3"/>
<path d="M83.2131 181.824H73.6411V191.394H83.2131V181.824Z" fill="#363DB3"/>
<path d="M80.0526 172.199H22.5287V181.769H80.0526V172.199Z" fill="#59A9EA"/>
<path opacity="0.37" d="M80.0526 178.946H22.5287V181.768H80.0526V178.946Z" fill="#307AF2"/>
<path d="M33.1521 195.858H26.8243V202.659H33.1521V195.858Z" fill="#EDF1F4"/>
<path d="M76.1997 195.858H69.8719V202.659H76.1997V195.858Z" fill="#EDF1F4"/>
<path d="M84.2193 206.222H21.7391V215.072H84.2193V206.222Z" fill="#59A9EA"/>
<path d="M60.079 206.222H45.8799V215.072H60.079V206.222Z" fill="#EDF1F4"/>
<path opacity="0.37" d="M84.2193 212.227H21.7391V215.072H84.2193V212.227Z" fill="#307AF2"/>
<path opacity="0.58" d="M83.2131 188.118H25.6892V191.394H83.2131V188.118Z" fill="#0F0756"/>
<path d="M74.6261 150.627C70.3453 149.792 58.2951 148.03 52.5926 153.241C51.7786 153.984 50.7768 154.421 49.7266 154.421H49.649H48.8423H48.7648C47.7145 154.421 46.7128 153.984 45.8993 153.241C40.1968 148.031 28.1472 149.792 23.8658 150.627C23.2269 150.751 22.7631 151.37 22.7631 152.097C22.7631 153.132 22.7631 154.579 22.7631 155.487C22.7631 155.958 23.1031 156.339 23.5229 156.339C23.8846 156.339 24.1773 156.662 24.195 157.067C24.8869 173.299 35.9262 172.397 35.9262 172.397C46.7019 172.797 47.646 163.037 47.6443 159.586C47.6438 158.929 48.1258 158.399 48.7123 158.399H48.8423H49.649H49.7791C50.3655 158.399 50.8476 158.929 50.847 159.586C50.8453 163.037 51.79 172.797 62.5657 172.397C62.5657 172.397 73.605 173.3 74.2969 157.067C74.3141 156.662 74.6067 156.339 74.969 156.339C75.3888 156.339 75.7288 155.957 75.7288 155.487V152.099C75.7288 151.372 75.2656 150.751 74.6261 150.627ZM45.6157 159.587C45.6157 161.021 45.428 163.775 44.1793 166.089C42.7177 168.808 40.2259 170.134 36.5617 170.134C36.374 170.134 36.1863 170.128 35.9935 170.123H35.8868L35.7904 170.128H35.6181C33.5422 170.128 26.7416 169.178 26.2241 156.959C26.2241 154.353 28.0354 152.214 30.3549 152.045C31.335 151.973 32.3624 151.929 33.4053 151.929C36.7802 151.929 39.5864 152.382 41.7428 153.256C44.0903 154.208 45.6157 156.76 45.6157 159.558V159.587ZM62.8743 170.129H62.702L62.6056 170.123H62.4989C62.3061 170.129 62.1184 170.135 61.9307 170.135C58.2666 170.135 55.7747 168.809 54.3132 166.09C53.0644 163.775 52.8767 161.021 52.8767 159.588V159.56C52.8767 156.762 54.4022 154.21 56.7497 153.258C58.9061 152.384 61.7128 151.931 65.0872 151.931C66.13 151.931 67.1574 151.975 68.1375 152.047C70.4571 152.216 72.2683 154.355 72.2683 156.961C71.7503 169.179 64.9497 170.129 62.8743 170.129Z" fill="#240D7C"/>
<path opacity="0.55" d="M68.137 152.044C67.1569 151.973 66.1295 151.929 65.0867 151.929C61.7117 151.929 58.9056 152.381 56.7492 153.256C54.4017 154.207 52.8762 156.759 52.8762 159.557V159.586C52.8762 161.019 53.0639 163.773 54.3127 166.088C55.7742 168.807 58.2661 170.132 61.9302 170.132C62.1179 170.132 62.3056 170.126 62.4984 170.121H62.6051L62.7015 170.126H62.8738C64.9498 170.126 71.7504 169.176 72.2678 156.957C72.2678 154.353 70.4566 152.213 68.137 152.044Z" fill="white"/>
<path opacity="0.55" d="M41.7428 153.257C39.5864 152.382 36.7796 151.93 33.4053 151.93C32.3624 151.93 31.335 151.974 30.3549 152.045C28.0354 152.214 26.2241 154.354 26.2241 156.959C26.7415 169.178 33.5422 170.129 35.6181 170.129H35.7904L35.8868 170.123H35.9935C36.1863 170.129 36.374 170.134 36.5617 170.134C40.2259 170.134 42.7177 168.809 44.1793 166.09C45.4275 163.774 45.6157 161.021 45.6157 159.588V159.56C45.6157 156.76 44.0903 154.208 41.7428 153.257Z" fill="white"/>
</svg>
